<svg xmlns="http://www.w3.org/2000/svg" xmlns:xlink="http://www.w3.org/1999/xlink" width="290.632" height="71.34" viewBox="0 0 290.632 71.34">
  <defs>
    <clipPath id="clip-path">
      <rect id="Rectangle_151" data-name="Rectangle 151" width="290.632" height="71.34" fill="none"/>
    </clipPath>
  </defs>
  <g id="Group_84" data-name="Group 84" transform="translate(0 0)">
    <g id="Group_83" data-name="Group 83" transform="translate(0 0)" clip-path="url(#clip-path)">
      <path id="Path_68" data-name="Path 68" d="M0,106.392v6.064a8.468,8.468,0,0,0,8.472,8.472,7.844,7.844,0,0,0,2.051-.268l41.111-10.256A21.132,21.132,0,0,0,67.642,89.894v-.4Z" transform="translate(0 -49.589)" fill="#36835e"/>
      <path id="Path_69" data-name="Path 69" d="M0,54.288,45.08,62.76l22.562-4.236L28.983,48.893Z" transform="translate(0 -27.092)" fill="#36835e"/>
      <path id="Path_70" data-name="Path 70" d="M6.911,79.285l45.7,8.561a12.7,12.7,0,0,0,14.8-10.122,13.607,13.607,0,0,0,.223-2.319V73.8L0,61.093v9.9a8.452,8.452,0,0,0,6.911,8.294" transform="translate(0 -33.852)" fill="#22cd6d"/>
      <path id="Path_71" data-name="Path 71" d="M0,8.469v6.064l67.642,16.9v-.4A21.171,21.171,0,0,0,51.634,10.52L10.523.265A8.407,8.407,0,0,0,.268,6.418,7.843,7.843,0,0,0,0,8.469" transform="translate(0 0)" fill="#22cd6d"/>
      <path id="Path_72" data-name="Path 72" d="M409.366,73.413h7.714V23.294h-7.714Zm-5.44-36.652a13.341,13.341,0,0,0-6.733,1.471,11.53,11.53,0,0,0-4.1,4.058l-.8-5.529h-6.867V73.413h7.714V55a13.519,13.519,0,0,1,2.14-7.892c1.427-2.051,3.745-3.121,6.956-3.121h3.433V36.76ZM364.465,63.469c0,3.389.8,5.886,2.408,7.536,1.605,1.605,4.147,2.452,7.625,2.452h7.446V66.68h-5.886a4.071,4.071,0,0,1-2.943-.892,4.253,4.253,0,0,1-.847-3.032V43.538h8.784V36.76h-8.784V26.549h-7.8V36.76h-6.376v6.778h6.376Zm-7.981-3.21h-7.892a8.606,8.606,0,0,1-9.007,7,9.254,9.254,0,0,1-7.491-3.389,13.434,13.434,0,0,1-2.809-8.829,13.267,13.267,0,0,1,2.809-8.739,9.289,9.289,0,0,1,7.491-3.344,8.833,8.833,0,0,1,8.962,6.867h7.937a15.842,15.842,0,0,0-5.44-9.854q-4.347-3.612-11.236-3.612a19.713,19.713,0,0,0-9.72,2.319,16.057,16.057,0,0,0-6.465,6.555,20.3,20.3,0,0,0-2.274,9.81,20.6,20.6,0,0,0,2.274,9.854,16.177,16.177,0,0,0,6.421,6.644,19.2,19.2,0,0,0,9.587,2.319q6.956,0,11.37-3.612a15.9,15.9,0,0,0,5.484-9.988m-75.534,5.975V30.473h7.714q8.093,0,12.44,4.816c2.9,3.21,4.37,7.58,4.37,13.065S304,58.208,301.1,61.418s-7.045,4.816-12.44,4.816ZM272.7,73.413h15.963a27.221,27.221,0,0,0,13.377-3.166,21.483,21.483,0,0,0,8.784-8.829A27.057,27.057,0,0,0,313.9,48.353a27.111,27.111,0,0,0-3.077-13.109,21.916,21.916,0,0,0-8.784-8.784,27.342,27.342,0,0,0-13.377-3.166H272.7ZM254.82,47.506a12.939,12.939,0,0,0,7.045-3.924,10.659,10.659,0,0,0,2.631-7.4,11.977,11.977,0,0,0-2.1-6.956,13.506,13.506,0,0,0-6.064-4.682,24.147,24.147,0,0,0-9.408-1.65q-7.892,0-12.574,4.013a13.869,13.869,0,0,0-4.86,10.924h7.8a7.609,7.609,0,0,1,2.809-6.109,10.943,10.943,0,0,1,7.045-2.274,10.694,10.694,0,0,1,6.644,1.962,6.281,6.281,0,0,1,2.586,5.351,6.987,6.987,0,0,1-2.631,5.707c-1.739,1.427-4.236,2.14-7.536,2.14h-4.058v6.6h4.593c3.478,0,6.153.669,8.071,2.051a6.564,6.564,0,0,1,2.809,5.618,7.339,7.339,0,0,1-2.9,6.064,11.5,11.5,0,0,1-7.357,2.274,12.037,12.037,0,0,1-8.071-2.631,9.3,9.3,0,0,1-3.166-7.223H228.2c0,5.128,1.694,9.141,5.039,12.039q5.016,4.414,13.644,4.414a25,25,0,0,0,9.9-1.784,15.291,15.291,0,0,0,6.6-5.039,12.586,12.586,0,0,0,2.319-7.536,10.613,10.613,0,0,0-3.121-7.981,15.06,15.06,0,0,0-7.759-3.968" transform="translate(-126.447 -12.685)" fill="#fff"/>
    </g>
  </g>
</svg>
