<svg xmlns="http://www.w3.org/2000/svg" xmlns:xlink="http://www.w3.org/1999/xlink" width="232.41" height="57.048" viewBox="0 0 232.41 57.048">
  <defs>
    <clipPath id="clip-path">
      <rect id="Rectangle_154" data-name="Rectangle 154" width="232.41" height="57.048"/>
    </clipPath>
  </defs>
  <g id="Group_85" data-name="Group 85" clip-path="url(#clip-path)">
    <path id="Path_73" data-name="Path 73" d="M0,103.007v4.849a6.772,6.772,0,0,0,6.775,6.775,6.272,6.272,0,0,0,1.64-.214l32.875-8.2a16.9,16.9,0,0,0,12.8-16.4v-.321Z" transform="translate(0 -57.583)" opacity="0.577"/>
    <path id="Path_74" data-name="Path 74" d="M0,53.207l36.049,6.775,18.042-3.387-30.914-7.7Z" transform="translate(0 -31.459)" opacity="0.577"/>
    <path id="Path_75" data-name="Path 75" d="M5.527,75.641l36.548,6.846a10.157,10.157,0,0,0,11.838-8.094,10.881,10.881,0,0,0,.178-1.854V71.255L0,61.093v7.916a6.759,6.759,0,0,0,5.527,6.632" transform="translate(0 -39.309)"/>
    <path id="Path_76" data-name="Path 76" d="M0,6.773v4.849L54.091,25.136v-.321a16.93,16.93,0,0,0-12.8-16.4L8.415.212a6.723,6.723,0,0,0-8.2,4.921A6.272,6.272,0,0,0,0,6.773" transform="translate(0 0)"/>
    <path id="Path_77" data-name="Path 77" d="M373.073,63.292h6.169V23.214h-6.169Zm-4.35-29.31a10.669,10.669,0,0,0-5.384,1.177,9.22,9.22,0,0,0-3.28,3.245l-.642-4.421h-5.491v29.31h6.169V48.566a10.811,10.811,0,0,1,1.712-6.311c1.141-1.64,3-2.5,5.562-2.5h2.746V33.982ZM337.167,55.341c0,2.71.642,4.707,1.925,6.026,1.284,1.284,3.316,1.961,6.1,1.961h5.955v-5.42h-4.707a3.255,3.255,0,0,1-2.353-.713,3.4,3.4,0,0,1-.677-2.425V39.4h7.024v-5.42h-7.024V25.817h-6.24v8.165h-5.1V39.4h5.1Zm-6.383-2.567h-6.311a6.882,6.882,0,0,1-7.2,5.6,7.4,7.4,0,0,1-5.99-2.71,10.743,10.743,0,0,1-2.246-7.06,10.609,10.609,0,0,1,2.246-6.989,7.428,7.428,0,0,1,5.99-2.674,7.064,7.064,0,0,1,7.167,5.491h6.347a12.668,12.668,0,0,0-4.35-7.88,13.594,13.594,0,0,0-8.985-2.888,15.764,15.764,0,0,0-7.773,1.854,12.841,12.841,0,0,0-5.17,5.242,16.234,16.234,0,0,0-1.818,7.844,16.477,16.477,0,0,0,1.818,7.88,12.936,12.936,0,0,0,5.135,5.313,15.35,15.35,0,0,0,7.666,1.854A13.893,13.893,0,0,0,326.4,60.76a12.714,12.714,0,0,0,4.386-7.987m-60.4,4.778v-28.6h6.169q6.472,0,9.948,3.851c2.318,2.567,3.494,6.062,3.494,10.447s-1.177,7.88-3.494,10.447-5.634,3.851-9.948,3.851Zm-6.6,5.741H276.55a21.767,21.767,0,0,0,10.7-2.532,17.179,17.179,0,0,0,7.024-7.06,21.637,21.637,0,0,0,2.46-10.447,21.68,21.68,0,0,0-2.46-10.483,17.526,17.526,0,0,0-7.024-7.024,21.864,21.864,0,0,0-10.7-2.532H263.785Zm-14.3-20.716a10.347,10.347,0,0,0,5.634-3.138,8.523,8.523,0,0,0,2.1-5.919,9.578,9.578,0,0,0-1.676-5.562,10.8,10.8,0,0,0-4.849-3.744,19.309,19.309,0,0,0-7.524-1.319q-6.311,0-10.055,3.209a11.091,11.091,0,0,0-3.887,8.736h6.24a6.084,6.084,0,0,1,2.246-4.885,8.751,8.751,0,0,1,5.634-1.818,8.552,8.552,0,0,1,5.313,1.569,5.022,5.022,0,0,1,2.068,4.279,5.587,5.587,0,0,1-2.1,4.564,9.266,9.266,0,0,1-6.026,1.712h-3.245v5.277h3.673a10.866,10.866,0,0,1,6.454,1.64,5.249,5.249,0,0,1,2.246,4.493,5.869,5.869,0,0,1-2.318,4.849,9.2,9.2,0,0,1-5.883,1.818,9.626,9.626,0,0,1-6.454-2.1,7.433,7.433,0,0,1-2.532-5.776H228.2c0,4.1,1.355,7.31,4.029,9.627q4.011,3.53,10.911,3.53a19.989,19.989,0,0,0,7.916-1.426,12.228,12.228,0,0,0,5.277-4.029,10.065,10.065,0,0,0,1.854-6.026,8.487,8.487,0,0,0-2.5-6.383,12.043,12.043,0,0,0-6.2-3.173" transform="translate(-146.832 -14.73)"/>
  </g>
</svg>
