<?xml version="1.0" encoding="utf-8"?>
<!-- Generator: Adobe Illustrator 26.0.3, SVG Export Plug-In . SVG Version: 6.00 Build 0)  -->
<svg version="1.1" id="Layer_1" xmlns:sketch="http://www.bohemiancoding.com/sketch/ns"
	 xmlns="http://www.w3.org/2000/svg" xmlns:xlink="http://www.w3.org/1999/xlink" x="0px" y="0px" viewBox="0 0 100 99"
	 style="enable-background:new 0 0 100 99;" xml:space="preserve">
<style type="text/css">
	.st0{fill-rule:evenodd;clip-rule:evenodd;}
</style>
<desc>Created with Sketch.</desc>
<g id="Page-1" sketch:type="MSPage">
	<g id="_x31_3_x5F_article_x5F_page_x5F_serif" transform="translate(-102.000000, -31.000000)" sketch:type="MSArtboardGroup">
		<g id="Group-Copy-3" transform="translate(1.000000, -41.000000)" sketch:type="MSLayerGroup">
			<g id="Great-art-and-cultur-2-_x2B_-ACE-logo-2" transform="translate(101.000000, 72.500000)" sketch:type="MSShapeGroup">
				<g id="ACE-logo-2" transform="translate(0.000000, 0.263158)">
					<g id="ACE-logo">
						<path id="ENGLAND" class="st0" d="M26.4,66.9l2.1,2.6l0.5-0.4l-1.7-2l2.3-1.9l1.6,1.9l0.5-0.4l-1.6-1.9l2.1-1.7l1.6,1.9
							l0.5-0.4L32.2,62L26.4,66.9z M31.8,72.5l0.5,0.4l3.7-5.6l0,0L35,74.6l0.7,0.5l4.2-6.3l-0.5-0.4l-3.8,5.6l0,0l1.1-7.4l-0.7-0.5
							L31.8,72.5z M43.6,74.5l1.3,0.4l-0.7,2.6c-0.4,0.1-0.7,0-1.1-0.1c-1.9-0.6-2-2.5-1.6-3.9c0.7-2.3,2.3-2.7,3.3-2.4
							c0.6,0.2,1.2,0.6,1.4,0.9l0.2-0.7c-0.2-0.2-0.8-0.6-1.4-0.8c-2.1-0.6-3.7,0.9-4.2,2.7c-0.4,1.4-0.5,4,2.1,4.7
							c0.6,0.2,1.2,0.2,1.8,0.1l1-3.6l-2-0.6L43.6,74.5z M49.1,78.7l3.1,0v-0.6l-2.5,0l0-7h-0.7L49.1,78.7z M56.2,71L56.2,71
							l2.4,3.6l-2.5,0.7L56.2,71z M55.3,78.4l0.6-0.2l0.1-2.2l2.9-0.8l1.2,1.8l0.7-0.2l-4.5-6.6l-0.7,0.2L55.3,78.4z M64.1,75.2
							l0.5-0.3L61,69.2l0,0l6.3,3.9l0.7-0.5l-4.1-6.4l-0.5,0.3l3.7,5.7l0,0l-6.4-3.9L60,68.8L64.1,75.2z M66.8,64.2l0.4-0.5
							c1.6-2,3.2-0.9,4.2-0.2c1.5,1.2,1.9,2.7,0.9,4l-0.4,0.5L66.8,64.2z M71.9,69l0.7-0.9c1.5-1.9,0.8-3.8-0.9-5.2
							c-1.9-1.5-3.6-1.3-5.2,0.7l-0.6,0.8L71.9,69L71.9,69z"/>
						<path id="COUNCIL" class="st0" d="M45.9,19.5c-0.3-0.1-0.9-0.2-2,0.1c-1.5,0.3-3.1,1.8-2.5,4.6c0.5,2.3,2.3,3.5,4.3,3.1
							c0.9-0.2,1.5-0.5,1.8-0.7L47.1,25c-0.2,0.1-0.6,0.5-1.4,0.7c-1.1,0.3-2.2-0.5-2.5-2c-0.3-1.5,0.2-2.6,1.3-2.9
							c0.8-0.2,1.3,0,1.6,0.1L45.9,19.5z M51.7,22.9c0.2-1.4,0.7-2.6,1.7-2.5c1,0.1,1.2,1.3,1.1,2.8c-0.2,1.4-0.7,2.6-1.7,2.5
							C51.8,25.5,51.6,24.3,51.7,22.9z M49.9,22.7c-0.3,2.2,0.5,4,2.7,4.3c2.2,0.3,3.4-1.3,3.7-3.5c0.3-2.2-0.6-4-2.7-4.3
							C51.4,18.9,50.2,20.4,49.9,22.7z M58.9,25.3c-0.9,1.7-0.3,3.1,1.2,3.8c1.5,0.8,2.9,0.4,3.8-1.3l2.2-4.3l-1.6-0.8l-2.3,4.6
							c-0.3,0.7-0.8,1-1.5,0.6C60,27.6,60,27,60.3,26.4l2.3-4.6L61.1,21L58.9,25.3z M64.4,31.5l1.1,1.1l4-3.8l0,0L67,34.2l1.5,1.5
							l5.5-5.3l-1.1-1.1L69.1,33l0,0l2.3-5.2l-1.5-1.5L64.4,31.5z M78.4,38.9c0-0.3,0-0.9-0.5-2c-0.7-1.4-2.5-2.6-5-1.4
							c-2.2,1.1-2.9,3-2,4.9c0.4,0.9,0.9,1.4,1.1,1.6l1.4-0.8c-0.1-0.1-0.7-0.4-1-1.2c-0.5-1,0-2.2,1.4-2.9c1.4-0.7,2.6-0.4,3.1,0.7
							c0.4,0.7,0.3,1.3,0.3,1.6L78.4,38.9z M72.3,44.7l0.3,1.8l7.5-1.3l-0.3-1.8L72.3,44.7z M72.9,49.2l-0.3,4.3l1.4,0.1l0.2-2.5
							l6.2,0.4l0.1-1.8L72.9,49.2z"/>
						<path id="ARTS" class="st0" d="M24.2,49.6l0.1,1.7l-3.2-0.8l0,0L24.2,49.6L24.2,49.6z M27.2,48.6l-0.1-1.8l-7.5,2.7l0.1,2
							l7.7,2.3L27.3,52l-1.7-0.5l-0.1-2.4L27.2,48.6z M22.1,41.1l0.2-0.5c0.3-0.9,0.9-0.8,1.2-0.7c0.5,0.2,0.8,0.7,0.6,1.3l-0.2,0.5
							L22.1,41.1z M27.5,44.7l0.6-1.7l-2.9-0.9c0.2-0.6,0.3-0.8,1.4-0.8l2.1,0.1l0.6-1.8l-2.6,0c-0.9,0-1.3,0.1-1.5,0.6l0,0
							c0.2-1.5-1-1.9-1.3-2c-1.3-0.4-2.2,0.4-2.6,1.6l-0.9,2.6L27.5,44.7z M30.7,37.2l1-1.5l-5.1-3.6l0.9-1.4l-1.1-0.8l-2.9,4.2
							l1.1,0.8l0.9-1.4L30.7,37.2z M32.2,24.9c-0.6,0.3-1,0.5-1.5,0.9c-2,1.6-0.8,3.2-0.6,3.3c1.7,2.1,3.6-0.4,4.5,0.7
							c0.4,0.5,0.2,1-0.3,1.4c-0.5,0.4-1,0.5-1.6,0.7l0.9,1.2c0.3-0.1,1.1-0.5,1.8-1.1c1.2-1,1.5-2.4,0.6-3.5
							c-1.7-2.1-3.6,0.3-4.5-0.7c-0.4-0.4-0.2-0.9,0.2-1.3c0.4-0.3,0.9-0.6,1.4-0.7L32.2,24.9z"/>
					</g>
				</g>
			</g>
		</g>
	</g>
</g>
</svg>
