<svg width="128" height="38" viewBox="0 0 128 38" fill="none" xmlns="http://www.w3.org/2000/svg">
<path d="M127.052 33.5065C127.052 34.4714 126.669 35.3969 125.988 36.0793C125.307 36.7616 124.384 37.145 123.42 37.145H4.48474C3.52076 37.145 2.59612 36.7619 1.91359 36.0798C1.23106 35.3978 0.846361 34.4723 0.843851 33.5065V4.48396C0.846361 3.5181 1.23106 2.59265 1.91359 1.91057C2.59612 1.22849 3.52076 0.845456 4.48474 0.845459H123.449C124.407 0.852979 125.323 1.23964 125.998 1.92118C126.673 2.60271 127.052 3.52389 127.052 4.48396V33.5065Z" fill="#5E2BFF"/>
<path d="M28.5677 18.791C28.5796 17.8627 28.8258 16.9525 29.2833 16.1452C29.7409 15.3379 30.395 14.6598 31.1846 14.174C30.6792 13.4585 30.0159 12.8694 29.2463 12.4526C28.4767 12.0357 27.6215 11.8023 26.7473 11.7705C24.851 11.5805 23.0779 12.8915 22.1298 12.8915C21.1816 12.8915 19.693 11.7895 18.1191 11.8275C17.1002 11.8594 16.1069 12.1553 15.2361 12.6864C14.3654 13.2175 13.6469 13.9657 13.1508 14.858C10.9985 18.5915 12.6009 24.0635 14.6584 27.075C15.6919 28.5475 16.896 30.2005 18.451 30.1435C20.0059 30.0865 20.5653 29.1935 22.4237 29.1935C24.2821 29.1935 24.8036 30.1435 26.4154 30.1435C28.0273 30.1435 29.1081 28.6615 30.1037 27.17C30.8414 26.1187 31.4109 24.9584 31.7914 23.731C30.8281 23.3174 30.0083 22.6279 29.4347 21.749C28.8612 20.8701 28.5596 19.8411 28.5677 18.791Z" fill="white"/>
<path d="M25.5336 9.79456C26.4331 8.70925 26.8752 7.31554 26.7662 5.90906C25.3912 6.05126 24.1209 6.70972 23.2107 7.75206C22.7623 8.26074 22.4192 8.8535 22.2011 9.496C21.983 10.1385 21.8943 10.818 21.9401 11.4951C22.6281 11.5003 23.3085 11.3501 23.9306 11.0557C24.5527 10.7613 25.1006 10.3303 25.5336 9.79456Z" fill="white"/>
<path d="M50.8682 29.925H48.7064L47.5307 26.2105H43.4347L42.3064 29.925H40.211L44.269 17.29H46.7816L50.8682 29.925ZM47.1799 24.7L46.1084 21.4035C45.9947 21.0615 45.7861 20.273 45.4732 19.019C45.3499 19.5605 45.1508 20.3585 44.8759 21.4035L43.7855 24.7H47.1799Z" fill="white"/>
<path d="M61.3073 25.2605C61.3801 26.602 60.9315 27.9197 60.0557 28.937C59.7031 29.3241 59.2719 29.6311 58.7911 29.8376C58.3104 30.044 57.7911 30.1451 57.2682 30.134C56.7608 30.1702 56.2531 30.0694 55.7978 29.8422C55.3426 29.615 54.9565 29.2696 54.6797 28.842V33.592H52.6222V23.8165C52.6222 22.8665 52.6222 21.8405 52.5464 20.8145H54.3289L54.4427 22.2585C54.7562 21.7325 55.2071 21.3022 55.7469 21.0143C56.2866 20.7263 56.8946 20.5915 57.5052 20.6245C58.0211 20.6177 58.5317 20.7288 58.9983 20.9494C59.4649 21.17 59.8752 21.4942 60.1979 21.8975C60.9582 22.849 61.3519 24.0425 61.3073 25.2605ZM59.2498 25.3365C59.2827 24.5606 59.0739 23.7937 58.6524 23.142C58.458 22.8551 58.1944 22.6219 57.8862 22.4642C57.5779 22.3064 57.2349 22.2292 56.8889 22.2395C56.3928 22.2382 55.9124 22.4132 55.533 22.7335C55.1273 23.0638 54.8464 23.5229 54.7366 24.035C54.6841 24.2371 54.6523 24.444 54.6418 24.6525V26.1725C54.6262 26.7912 54.8466 27.3925 55.2581 27.854C55.4534 28.0778 55.6959 28.2553 55.9681 28.3736C56.2404 28.4919 56.5354 28.5481 56.832 28.538C57.1782 28.5521 57.5224 28.4796 57.8336 28.327C58.1449 28.1744 58.4132 27.9466 58.6145 27.664C59.068 26.9757 59.2906 26.1603 59.2498 25.3365Z" fill="white"/>
<path d="M71.7748 25.2605C71.8476 26.602 71.3991 27.9196 70.5233 28.937C70.1692 29.3248 69.7364 29.6322 69.254 29.8386C68.7716 30.0451 68.2507 30.1458 67.7262 30.134C67.2195 30.1757 66.7111 30.0773 66.2563 29.8495C65.8016 29.6216 65.418 29.2732 65.1473 28.842V33.592H63.0898V23.8165C63.0898 22.8665 63.0898 21.8405 63.0139 20.8145H64.787L64.9007 22.2585C65.2064 21.788 65.6176 21.3957 66.1015 21.1128C66.5854 20.8299 67.1287 20.6643 67.6879 20.6292C68.247 20.5942 68.8066 20.6906 69.322 20.9108C69.8373 21.131 70.2942 21.4689 70.656 21.8975C71.4235 22.8455 71.8211 24.0406 71.7748 25.2605ZM69.7173 25.3365C69.7519 24.5591 69.5395 23.7907 69.1105 23.142C68.9148 22.8495 68.6469 22.6128 68.333 22.4546C68.019 22.2965 67.6695 22.2224 67.3185 22.2395C66.8219 22.2348 66.3403 22.4102 65.9627 22.7335C65.557 23.0637 65.276 23.5229 65.1662 24.035C65.1091 24.236 65.0772 24.4435 65.0714 24.6525V26.1725C65.0523 26.79 65.2693 27.3915 65.6782 27.854C65.8851 28.0789 66.1402 28.2538 66.4243 28.3657C66.7084 28.4776 67.0142 28.5235 67.3185 28.5C67.6634 28.5142 68.0063 28.4417 68.316 28.289C68.6257 28.1363 68.8924 27.9084 69.0916 27.626C69.5334 26.9469 69.7522 26.1464 69.7173 25.3365Z" fill="white"/>
<path d="M83.437 26.3815C83.4531 26.8753 83.3613 27.3666 83.168 27.8212C82.9748 28.2757 82.6848 28.6825 82.3182 29.013C81.3474 29.796 80.1205 30.1888 78.8764 30.115C77.7331 30.1721 76.5976 29.8984 75.6053 29.3265L76.0794 27.6355C76.9578 28.1742 77.9699 28.4541 78.9997 28.443C79.6349 28.4808 80.2639 28.2998 80.7822 27.93C80.9879 27.7741 81.1554 27.5733 81.2721 27.3428C81.3887 27.1124 81.4514 26.8583 81.4554 26.6C81.4599 26.3582 81.4152 26.1181 81.3239 25.8943C81.2326 25.6705 81.0967 25.4678 80.9244 25.2985C80.4171 24.8661 79.8265 24.5428 79.1893 24.3485C76.9643 23.4681 75.8519 22.2363 75.8519 20.653C75.8395 20.1662 75.9381 19.683 76.1402 19.2402C76.3423 18.7973 76.6425 18.4065 77.0181 18.0975C77.8967 17.3926 79.0041 17.0374 80.128 17.1C81.1102 17.069 82.0856 17.2742 82.9724 17.6985L82.4889 19.3515C81.7486 18.9557 80.9195 18.7562 80.0806 18.772C79.4791 18.7342 78.8849 18.9203 78.4118 19.2945C78.2512 19.4392 78.1233 19.6166 78.0367 19.8148C77.95 20.0131 77.9066 20.2276 77.9093 20.444C77.9045 20.6805 77.9542 20.915 78.0545 21.1292C78.1548 21.3434 78.303 21.5315 78.4877 21.679C79.0427 22.0922 79.6606 22.413 80.3176 22.629C81.2262 22.9472 82.0477 23.4743 82.7164 24.168C83.227 24.7881 83.4845 25.5789 83.437 26.3815Z" fill="white"/>
<path d="M90.1594 22.3344H87.9313V26.7614C87.9313 27.8824 88.32 28.4429 89.107 28.4429C89.4259 28.4554 89.745 28.4234 90.0551 28.3479L90.0741 29.8869C89.5669 30.0553 89.0341 30.1325 88.5001 30.1149C88.15 30.1382 87.799 30.0848 87.4716 29.9585C87.1441 29.8322 86.848 29.6359 86.6039 29.3834C86.0806 28.676 85.8374 27.7995 85.9212 26.9229V22.3344H84.5938V20.8144H85.9212V19.1424L87.9123 18.5439V20.8144H90.1404L90.1594 22.3344Z" fill="white"/>
<path d="M100.21 25.2984C100.258 26.5575 99.8315 27.7886 99.0151 28.7469C98.5932 29.2077 98.0759 29.5705 97.4994 29.8101C96.9229 30.0497 96.3012 30.1602 95.6776 30.1339C95.0817 30.1605 94.4872 30.0551 93.9366 29.8252C93.386 29.5953 92.8927 29.2466 92.4919 28.8039C91.6807 27.8801 91.2533 26.6801 91.2972 25.4504C91.2454 24.1756 91.687 22.9299 92.5298 21.9734C92.9498 21.5231 93.4623 21.1693 94.0319 20.9364C94.6015 20.7035 95.2147 20.5971 95.8293 20.6244C96.4305 20.6007 97.0298 20.7072 97.5861 20.9368C98.1425 21.1663 98.6428 21.5134 99.053 21.9544C99.8465 22.8826 100.26 24.0774 100.21 25.2984ZM98.1144 25.3649C98.137 24.6068 97.9499 23.8572 97.5739 23.1989C97.395 22.8676 97.1301 22.5909 96.8071 22.3981C96.4842 22.2052 96.1152 22.1034 95.7393 22.1034C95.3633 22.1034 94.9943 22.2052 94.6714 22.3981C94.3484 22.5909 94.0835 22.8676 93.9046 23.1989C93.5213 23.8681 93.3339 24.632 93.3642 25.4029C93.3286 26.1516 93.5026 26.8952 93.8667 27.5499C94.0427 27.8818 94.3056 28.1595 94.6271 28.3531C94.9487 28.5467 95.3167 28.649 95.6919 28.649C96.067 28.649 96.435 28.5467 96.7566 28.3531C97.0781 28.1595 97.341 27.8818 97.517 27.5499C97.9163 26.892 98.1233 26.1349 98.1144 25.3649Z" fill="white"/>
<path d="M106.78 22.591C106.571 22.5519 106.358 22.5328 106.145 22.534C105.824 22.5176 105.505 22.5831 105.216 22.7243C104.928 22.8656 104.68 23.0779 104.495 23.3415C104.145 23.8765 103.97 24.5072 103.993 25.1465V29.8965H101.973V23.655C101.973 22.6005 101.973 21.6505 101.897 20.805H103.652L103.727 22.553H103.784C103.975 21.9829 104.328 21.4811 104.799 21.109C105.218 20.7879 105.731 20.6142 106.259 20.615C106.426 20.6041 106.594 20.6041 106.761 20.615L106.78 22.591Z" fill="white"/>
<path d="M115.826 24.9375C115.831 25.2559 115.805 25.574 115.75 25.8875H109.682C109.671 26.2747 109.744 26.6596 109.896 27.0156C110.048 27.3715 110.276 27.6901 110.564 27.949C111.127 28.3916 111.83 28.6174 112.545 28.5855C113.383 28.5963 114.216 28.4514 115.001 28.158L115.314 29.564C114.349 29.9611 113.313 30.152 112.27 30.1245C111.66 30.1579 111.049 30.0647 110.477 29.8505C109.904 29.6363 109.381 29.3059 108.942 28.88C108.53 28.4306 108.211 27.9035 108.005 27.3293C107.798 26.7552 107.707 26.1456 107.738 25.536C107.691 24.2929 108.088 23.0737 108.857 22.097C109.237 21.6209 109.723 21.2405 110.276 20.9865C110.83 20.7324 111.435 20.6117 112.043 20.634C112.622 20.6033 113.2 20.7217 113.721 20.9777C114.242 21.2338 114.689 21.6191 115.02 22.097C115.569 22.9404 115.85 23.9308 115.826 24.9375ZM113.929 24.415C113.96 23.8683 113.825 23.325 113.541 22.857C113.373 22.5841 113.134 22.3615 112.851 22.2127C112.567 22.0639 112.249 21.9944 111.929 22.0115C111.613 22.0037 111.3 22.0752 111.018 22.2196C110.737 22.3639 110.496 22.5765 110.317 22.838C109.976 23.298 109.769 23.844 109.72 24.415H113.929Z" fill="white"/>
<path d="M46.5067 9.49995C46.5434 9.97068 46.4728 10.4436 46.3004 10.883C46.1279 11.3225 45.858 11.7169 45.5111 12.0364C44.753 12.602 43.8184 12.8782 42.8753 12.8154C42.3905 12.8233 41.9059 12.7979 41.4246 12.7394V6.64995C41.9892 6.56285 42.56 6.52155 43.1313 6.52645C44.0074 6.45858 44.8788 6.70803 45.587 7.22945C45.8991 7.51555 46.1437 7.86782 46.3028 8.2606C46.4619 8.65339 46.5315 9.07678 46.5067 9.49995ZM45.4542 9.49995C45.4746 9.19739 45.4349 8.89378 45.3372 8.60676C45.2395 8.31973 45.0859 8.055 44.8853 7.82795C44.6598 7.62176 44.3946 7.46398 44.106 7.36432C43.8174 7.26466 43.5115 7.22523 43.2071 7.24845C42.9369 7.24329 42.6669 7.26557 42.4012 7.31495V11.9604C42.6254 11.9748 42.8502 11.9748 43.0744 11.9604C43.3908 11.9892 43.7097 11.9544 44.0125 11.8582C44.3153 11.7619 44.5959 11.6061 44.8379 11.3999C45.0614 11.1401 45.2309 10.8382 45.3368 10.512C45.4426 10.1858 45.4825 9.84178 45.4542 9.49995Z" fill="white"/>
<path d="M52.0628 10.45C52.0858 11.0676 51.8759 11.6713 51.475 12.141C51.2675 12.3674 51.0133 12.5459 50.73 12.664C50.4467 12.7821 50.1412 12.837 49.8347 12.825C49.5418 12.8378 49.2498 12.7857 48.9793 12.6724C48.7089 12.5591 48.4668 12.3874 48.2702 12.1695C47.8725 11.7129 47.6624 11.1222 47.6824 10.5165C47.6583 9.89245 47.8757 9.28324 48.2892 8.81596C48.4955 8.59446 48.7473 8.42033 49.0272 8.30554C49.307 8.19075 49.6084 8.13802 49.9105 8.15097C50.206 8.1392 50.5006 8.19169 50.7739 8.30485C51.0473 8.418 51.2929 8.58913 51.4939 8.80647C51.8842 9.2625 52.0875 9.84976 52.0628 10.45ZM51.0293 10.45C51.0208 10.1161 50.9296 9.78968 50.7639 9.49997C50.6829 9.33412 50.5556 9.19548 50.3973 9.101C50.239 9.00652 50.0567 8.96029 49.8726 8.96796C49.6803 8.95626 49.4887 9.00018 49.3206 9.0945C49.1525 9.18882 49.015 9.32956 48.9244 9.49997C48.7369 9.82911 48.645 10.2042 48.659 10.583C48.646 10.9556 48.738 11.3243 48.9244 11.647C49.0108 11.8099 49.1399 11.9463 49.2977 12.0414C49.4556 12.1365 49.6363 12.1867 49.8204 12.1867C50.0046 12.1867 50.1853 12.1365 50.3432 12.0414C50.501 11.9463 50.6301 11.8099 50.7164 11.647C50.9283 11.3087 51.0371 10.9158 51.0293 10.5165V10.45Z" fill="white"/>
<path d="M59.5058 8.28406L58.112 12.7586H57.1639L56.5855 10.8586C56.4387 10.3811 56.3184 9.89585 56.2252 9.40506C56.1387 9.89731 56.0183 10.383 55.8649 10.8586L55.2486 12.7586H54.3004L53.0299 8.28406H54.0444L54.5564 10.4501C54.6797 10.9536 54.784 11.4001 54.8599 11.8846C54.9357 11.5109 55.059 11.0359 55.2296 10.4596L55.8649 8.32206H56.6803L57.2871 10.4121C57.4293 10.9251 57.5526 11.4191 57.6379 11.8846C57.7137 11.3888 57.815 10.8973 57.9413 10.4121L58.4913 8.32206L59.5058 8.28406Z" fill="white"/>
<path d="M64.6637 12.7585H63.7156V10.1935C63.7156 9.40505 63.4121 9.00605 62.7674 9.00605C62.6305 9.00604 62.4951 9.03575 62.3707 9.09315C62.2463 9.15055 62.1358 9.23427 62.0468 9.33855C61.8664 9.55395 61.7689 9.82689 61.7719 10.108V12.7585H60.7763V9.56655C60.7763 9.16755 60.7763 8.74005 60.7763 8.28405H61.6296L61.677 8.97755C61.7981 8.75575 61.9745 8.56919 62.189 8.43605C62.4744 8.26316 62.8039 8.17733 63.1372 8.18905C63.3282 8.1825 63.5185 8.21539 63.6963 8.28566C63.8741 8.35594 64.0356 8.4621 64.1707 8.59755C64.3581 8.79301 64.5015 9.02639 64.5915 9.282C64.6814 9.53761 64.7158 9.80955 64.6922 10.0795L64.6637 12.7585Z" fill="white"/>
<path d="M67.4038 12.7586H66.3704V6.23206H67.3185L67.4038 12.7586Z" fill="white"/>
<path d="M73.2539 10.4501C73.2769 11.0677 73.067 11.6714 72.6661 12.1411C72.4586 12.3675 72.2044 12.5459 71.9211 12.6641C71.6379 12.7822 71.3323 12.8371 71.0258 12.8251C70.7329 12.8379 70.4409 12.7858 70.1704 12.6725C69.9 12.5592 69.6579 12.3875 69.4613 12.1696C69.0636 11.713 68.8536 11.1222 68.8735 10.5166C68.8494 9.89254 69.0668 9.28333 69.4803 8.81605C69.6911 8.60015 69.9459 8.43238 70.2274 8.32417C70.5088 8.21596 70.8103 8.16987 71.1111 8.18905C71.4066 8.17728 71.7012 8.22978 71.9745 8.34293C72.2478 8.45609 72.4935 8.62722 72.6945 8.84455C73.0724 9.29219 73.2716 9.86405 73.2539 10.4501ZM72.2204 10.4501C72.2119 10.1162 72.1207 9.78977 71.955 9.50005C71.8843 9.33272 71.7673 9.1892 71.6177 9.08648C71.4682 8.98377 71.2923 8.92619 71.1111 8.92055C70.9137 8.9131 70.7185 8.96409 70.5499 9.06716C70.3813 9.17022 70.2467 9.32079 70.163 9.50005C69.9754 9.8292 69.8835 10.2043 69.8975 10.5831C69.8933 10.9396 69.985 11.2908 70.163 11.5996C70.2493 11.7625 70.3784 11.8989 70.5362 11.994C70.6941 12.089 70.8748 12.1393 71.059 12.1393C71.2431 12.1393 71.4238 12.089 71.5817 11.994C71.7395 11.8989 71.8686 11.7625 71.955 11.5996C72.1415 11.27 72.2334 10.8952 72.2204 10.5166V10.4501Z" fill="white"/>
<path d="M78.061 12.7584H77.1698L77.0939 12.2454C76.9432 12.4481 76.745 12.6105 76.5168 12.7182C76.2886 12.8259 76.0374 12.8756 75.7855 12.8629C75.5971 12.8716 75.409 12.8396 75.2339 12.7691C75.0589 12.6986 74.901 12.5913 74.771 12.4544C74.6502 12.3289 74.5568 12.1797 74.4964 12.0162C74.436 11.8527 74.4101 11.6785 74.4201 11.5044C74.4118 11.2534 74.4706 11.0046 74.5907 10.7841C74.7108 10.5636 74.8876 10.3793 75.1028 10.2504C75.6847 9.93941 76.3407 9.7948 76.9991 9.83245V9.78495C76.9991 9.19595 76.6862 8.90145 76.051 8.90145C75.6443 8.89732 75.2454 9.01293 74.9037 9.23395L74.7141 8.54995C75.1762 8.27871 75.7053 8.1437 76.2406 8.16045C77.4068 8.16045 77.9947 8.77795 77.9947 10.0604V11.7134C77.9928 12.0629 78.015 12.4121 78.061 12.7584ZM77.0276 11.2194V10.5354C75.9372 10.5354 75.3873 10.8109 75.3873 11.4379C75.3787 11.5336 75.3913 11.63 75.424 11.7203C75.4568 11.8106 75.509 11.8926 75.5769 11.9604C75.7108 12.0765 75.8835 12.1376 76.0604 12.1314C76.2808 12.1346 76.4954 12.0607 76.6673 11.9224C76.7563 11.8628 76.8324 11.7858 76.8911 11.696C76.9497 11.6063 76.9897 11.5056 77.0086 11.3999C77.0254 11.3413 77.0318 11.2803 77.0276 11.2194Z" fill="white"/>
<path d="M83.712 12.7586H82.8302V12.0461C82.6958 12.3083 82.4877 12.5254 82.2316 12.6706C81.9755 12.8157 81.6826 12.8826 81.389 12.8631C81.1321 12.8686 80.8775 12.814 80.6454 12.7035C80.4132 12.5929 80.2101 12.4296 80.0521 12.2266C79.6796 11.7627 79.4906 11.1777 79.5212 10.5831C79.4893 9.94267 79.6954 9.31317 80.0996 8.81606C80.2685 8.61656 80.4793 8.45691 80.717 8.34852C80.9546 8.24014 81.2133 8.18568 81.4744 8.18906C81.7199 8.16592 81.967 8.21031 82.1892 8.31744C82.4114 8.42458 82.6003 8.5904 82.7354 8.79706V6.23206H83.6836V11.5521C83.6741 11.9891 83.6836 12.3976 83.712 12.7586ZM82.6785 10.8586V10.1176C82.6907 10.0134 82.6907 9.9082 82.6785 9.80406C82.6234 9.5692 82.4976 9.35697 82.3182 9.19606C82.1357 9.03439 81.898 8.94934 81.6545 8.95856C81.4841 8.95122 81.3145 8.98749 81.1619 9.06394C81.0093 9.14039 80.8786 9.25452 80.7822 9.39556C80.5562 9.73141 80.4433 10.1308 80.4598 10.5356C80.4446 10.9166 80.5509 11.2926 80.7633 11.6091C80.8611 11.7494 80.9917 11.8634 81.1438 11.9413C81.2959 12.0191 81.4648 12.0584 81.6356 12.0556C81.7867 12.0612 81.937 12.0305 82.0739 11.966C82.2108 11.9016 82.3303 11.8052 82.4225 11.6851C82.6016 11.4516 82.6923 11.1622 82.6785 10.8681V10.8586Z" fill="white"/>
<path d="M92.2074 10.45C92.2304 11.0677 92.0205 11.6713 91.6196 12.141C91.412 12.3674 91.1578 12.5459 90.8746 12.664C90.5913 12.7821 90.2858 12.8371 89.9793 12.825C89.6864 12.8379 89.3943 12.7858 89.1239 12.6725C88.8535 12.5592 88.6113 12.3874 88.4148 12.1695C88.0171 11.7129 87.807 11.1222 87.827 10.5165C87.8029 9.89252 88.0203 9.28331 88.4338 8.81603C88.6457 8.59887 88.902 8.43036 89.1852 8.32211C89.4684 8.21386 89.7717 8.16845 90.0741 8.18903C90.3696 8.17726 90.6641 8.22976 90.9375 8.34291C91.2108 8.45607 91.4564 8.62719 91.6575 8.84453C92.0319 9.29355 92.2277 9.86526 92.2074 10.45ZM91.1739 10.45C91.1654 10.1162 91.0742 9.78974 90.9084 9.50003C90.8275 9.33418 90.7002 9.19554 90.5419 9.10106C90.3836 9.00658 90.2013 8.96035 90.0172 8.96803C89.8344 8.96711 89.6548 9.01616 89.4977 9.1099C89.3407 9.20364 89.2121 9.33852 89.1259 9.50003C88.9384 9.82918 88.8465 10.2043 88.8604 10.583C88.8562 10.9396 88.9479 11.2907 89.1259 11.5995C89.2123 11.7625 89.3413 11.8988 89.4992 11.9939C89.657 12.089 89.8377 12.1392 90.0219 12.1392C90.2061 12.1392 90.3868 12.089 90.5447 11.9939C90.7025 11.8988 90.8315 11.7625 90.9179 11.5995C91.1012 11.269 91.1898 10.8943 91.1739 10.5165V10.45Z" fill="white"/>
<path d="M97.5455 12.7585H96.5973V10.1935C96.5973 9.40497 96.2939 9.00597 95.6492 9.00597C95.5116 9.00188 95.3749 9.02977 95.2499 9.08746C95.1249 9.14515 95.0149 9.23106 94.9286 9.33847C94.7482 9.55387 94.6507 9.82681 94.6536 10.108V12.7585H93.7055V9.56647C93.7055 9.16747 93.7055 8.73997 93.7055 8.28397H94.5778V8.97747C94.7019 8.75787 94.8776 8.57197 95.0898 8.43597C95.3624 8.27404 95.6736 8.18871 95.9905 8.18897C96.183 8.18224 96.3748 8.21501 96.5541 8.28526C96.7335 8.35551 96.8966 8.46175 97.0335 8.59747C97.2152 8.79641 97.3545 9.03052 97.4425 9.2854C97.5306 9.54027 97.5656 9.81051 97.5455 10.0795V12.7585Z" fill="white"/>
<path d="M104.239 9.02499H103.14V11.2005C103.14 11.761 103.339 12.0365 103.718 12.0365C103.868 12.0384 104.017 12.0224 104.164 11.989V12.7395C103.913 12.8237 103.65 12.8623 103.386 12.8535C103.211 12.8654 103.036 12.8393 102.873 12.777C102.709 12.7147 102.561 12.6176 102.438 12.4925C102.183 12.1447 102.065 11.7153 102.106 11.286V9.02499H101.452V8.28399H102.106V7.46699L103.054 7.17249V8.28399H104.145V9.02499H104.239Z" fill="white"/>
<path d="M109.492 12.7586H108.544V10.2126C108.544 9.41456 108.25 9.00606 107.653 9.00606C107.439 8.99871 107.228 9.0642 107.056 9.19185C106.884 9.3195 106.76 9.5018 106.705 9.70906C106.688 9.82879 106.688 9.95032 106.705 10.0701V12.7586H105.756V6.23206H106.705V8.93006C106.841 8.69773 107.036 8.50634 107.272 8.37596C107.507 8.24559 107.773 8.18103 108.041 8.18906C108.231 8.18151 108.42 8.21398 108.597 8.28435C108.773 8.35472 108.933 8.46142 109.065 8.59756C109.247 8.80046 109.385 9.03818 109.471 9.29624C109.557 9.5543 109.59 9.82729 109.568 10.0986L109.492 12.7586Z" fill="white"/>
<path d="M114.925 10.3074C114.937 10.4592 114.937 10.6117 114.925 10.7634H111.881C111.875 10.9538 111.909 11.1433 111.983 11.3188C112.057 11.4944 112.168 11.6517 112.308 11.7799C112.579 11.9907 112.914 12.1014 113.256 12.0934C113.668 12.0969 114.076 12.0228 114.46 11.8749L114.612 12.5684C114.137 12.7608 113.627 12.8546 113.114 12.8439C112.815 12.8608 112.516 12.8154 112.235 12.7108C111.955 12.6062 111.699 12.4445 111.483 12.2359C111.281 12.015 111.125 11.7558 111.024 11.4736C110.923 11.1914 110.879 10.8918 110.895 10.5924C110.87 9.98087 111.065 9.38055 111.445 8.90144C111.631 8.66591 111.869 8.4777 112.141 8.3522C112.413 8.22671 112.711 8.16751 113.01 8.17944C113.294 8.16663 113.577 8.2261 113.833 8.35234C114.088 8.47858 114.307 8.66747 114.47 8.90144C114.765 9.31058 114.925 9.80251 114.925 10.3074ZM113.977 10.0509C113.993 9.78278 113.924 9.51636 113.778 9.29094C113.696 9.15685 113.58 9.04727 113.442 8.97372C113.303 8.90016 113.147 8.86535 112.991 8.87294C112.836 8.87165 112.684 8.9082 112.547 8.97939C112.41 9.05058 112.292 9.15427 112.204 9.28144C112.03 9.50219 111.928 9.77053 111.91 10.0509H113.977Z" fill="white"/>
</svg>
