<?xml version="1.0" encoding="utf-8"?>
<!-- Generator: Adobe Illustrator 26.0.2, SVG Export Plug-In . SVG Version: 6.00 Build 0)  -->
<svg version="1.1" id="Layer_1" xmlns="http://www.w3.org/2000/svg" xmlns:xlink="http://www.w3.org/1999/xlink" x="0px" y="0px"
	 viewBox="0 0 260 66" style="enable-background:new 0 0 260 66;" xml:space="preserve">
<style type="text/css">
	.st0{clip-path:url(#SVGID_00000017507420028943545860000000336344834185877687_);}
	.st1{fill:#1A1A1A;}
</style>
<g>
	<defs>
		<rect id="SVGID_1_" x="15.5" y="0" width="229" height="66"/>
	</defs>
	<clipPath id="SVGID_00000074421392894022543460000012126319092470940819_">
		<use xlink:href="#SVGID_1_"  style="overflow:visible;"/>
	</clipPath>
	<g id="Group_84" style="clip-path:url(#SVGID_00000074421392894022543460000012126319092470940819_);">
		<g id="Group_67" transform="translate(0 2.641)">
			<path id="Path_27" class="st1" d="M19.5,13.2h11.8V2.6H28L19.5,13.2z M15.5,14.3c0.1-0.2,0.1-0.5,0.3-0.7L26.3,0.5l0,0
				C26.6,0.2,27,0,27.4,0h5.3c0.7,0,1.3,0.6,1.3,1.3v21.1c0,0.7-0.6,1.3-1.3,1.3c-0.7,0-1.3-0.6-1.3-1.3c0,0,0,0,0,0v-6.6H18.1v6.6
				c0,0.7-0.6,1.3-1.3,1.3c-0.4,0-0.7-0.1-0.9-0.4c-0.2-0.2-0.4-0.6-0.4-0.9L15.5,14.3z"/>
		</g>
		<g id="Group_68" transform="translate(24.965 7.92)">
			<path id="Path_28" class="st1" d="M34,6.6c0,0.7-0.6,1.3-1.3,1.3c-0.7,0-1.3-0.6-1.3-1.3c0,0,0,0,0,0v-4h-7.9v13.2h4
				c0.7,0,1.3,0.6,1.3,1.3c0,0.7-0.6,1.3-1.3,1.3H16.8c-0.4,0-0.7-0.1-0.9-0.4c-0.2-0.2-0.4-0.6-0.4-0.9c0-0.7,0.6-1.3,1.3-1.3h4
				V2.6h-4c-0.4,0-0.7-0.1-0.9-0.4c-0.2-0.2-0.4-0.6-0.4-0.9c0-0.7,0.6-1.3,1.3-1.3h15.8C33.4,0,34,0.6,34,1.3L34,6.6z"/>
		</g>
		<g id="Group_69" transform="translate(48.509 0)">
			<path id="Path_29" class="st1" d="M32.7,23.7c0.7,0,1.3,0.6,1.3,1.3c0,0.7-0.6,1.3-1.3,1.3h-5.3c-3.6,0-6.6-3-6.6-6.6v-9.2h-4
				c-0.4,0-0.7-0.1-0.9-0.4c-0.2-0.2-0.4-0.6-0.4-0.9c0-0.7,0.6-1.3,1.3-1.3h4V1.3c0-0.7,0.6-1.3,1.3-1.3c0.7,0,1.3,0.6,1.3,1.3v6.6
				h9.2c0.7,0,1.3,0.6,1.3,1.3c0,0.7-0.6,1.3-1.3,1.3h-9.2v9.2c0,2.2,1.8,4,4,4H32.7z"/>
		</g>
		<g id="Group_70" transform="translate(72.067 0)">
			<path id="Path_30" class="st1" d="M24.7,2.6c-0.4,0-0.7-0.1-0.9-0.4c-0.2-0.2-0.4-0.6-0.4-0.9C23.4,0.6,24,0,24.7,0
				c0.7,0,1.3,0.6,1.3,1.3C26,2,25.5,2.6,24.7,2.6 M16.8,26.4c-0.4,0-0.7-0.1-0.9-0.4c-0.2-0.2-0.4-0.6-0.4-0.9
				c0-0.7,0.6-1.3,1.3-1.3h6.6V10.6h-6.6c-0.4,0-0.7-0.1-0.9-0.4c-0.2-0.2-0.4-0.6-0.4-0.9c0-0.7,0.6-1.3,1.3-1.3h7.9
				c0.7,0,1.3,0.6,1.3,1.3v14.5h6.6c0.7,0,1.3,0.6,1.3,1.3c0,0.7-0.6,1.3-1.3,1.3H16.8z"/>
		</g>
		<g id="Group_71" transform="translate(94.195 -0.006)">
			<path id="Path_31" class="st1" d="M20.8,6.6c0-3.6,3-6.6,6.6-6.6h5.3C33.4,0,34,0.6,34,1.3c0,0.7-0.6,1.3-1.3,1.3h-5.3
				c-2.2,0-4,1.8-4,4c0,0,0,0,0,0v1.3h9.2c0.7,0,1.3,0.6,1.3,1.3c0,0.7-0.6,1.3-1.3,1.3h-9.2v13.2h4c0.7,0,1.3,0.6,1.3,1.3
				c0,0.7-0.6,1.3-1.3,1.3H16.8c-0.4,0-0.7-0.1-0.9-0.4c-0.2-0.2-0.4-0.6-0.4-0.9c0-0.7,0.6-1.3,1.3-1.3h4V10.6h-4
				c-0.4,0-0.7-0.1-0.9-0.4c-0.2-0.2-0.4-0.6-0.4-0.9c0-0.7,0.6-1.3,1.3-1.3h4V6.6z"/>
		</g>
		<g id="Group_72" transform="translate(117.748)">
			<path id="Path_32" class="st1" d="M24.7,2.6c-0.4,0-0.7-0.1-0.9-0.4c-0.2-0.2-0.4-0.6-0.4-0.9C23.4,0.6,24,0,24.7,0
				C25.5,0,26,0.6,26,1.3C26,2,25.5,2.6,24.7,2.6 M16.8,26.4c-0.4,0-0.7-0.1-0.9-0.4c-0.2-0.2-0.4-0.6-0.4-0.9
				c0-0.7,0.6-1.3,1.3-1.3h6.6V10.6h-6.6c-0.4,0-0.7-0.1-0.9-0.4c-0.2-0.2-0.4-0.6-0.4-0.9c0-0.7,0.6-1.3,1.3-1.3h7.9
				c0.7,0,1.3,0.6,1.3,1.3v14.5h6.6c0.7,0,1.3,0.6,1.3,1.3c0,0.7-0.6,1.3-1.3,1.3L16.8,26.4z"/>
		</g>
		<g id="Group_73" transform="translate(139.882 7.911)">
			<path id="Path_33" class="st1" d="M32.6,15.8c0.7,0,1.3,0.6,1.3,1.3c0,0.7-0.6,1.3-1.3,1.3H22.1c-3.6,0-6.6-3-6.6-6.6V6.6
				c0-3.6,3-6.6,6.6-6.6h5.3C31,0,34,3,34,6.6l0,0c0,0.7-0.6,1.3-1.3,1.3c-0.4,0-0.7-0.1-0.9-0.4c-0.2-0.2-0.4-0.6-0.4-0.9
				c0-2.2-1.8-3.9-4-4h-5.3c-2.2,0-4,1.8-4,4v5.3c0,1.1,0.4,2.1,1.2,2.8c0.7,0.7,1.8,1.2,2.8,1.2H32.6z"/>
		</g>
		<g id="Group_74" transform="translate(164.847 0)">
			<path id="Path_34" class="st1" d="M24.7,2.6c-0.4,0-0.7-0.1-0.9-0.4c-0.2-0.2-0.4-0.6-0.4-0.9C23.4,0.6,24,0,24.7,0
				c0.7,0,1.3,0.6,1.3,1.3C26,2,25.5,2.6,24.7,2.6 M16.8,26.4c-0.4,0-0.7-0.1-0.9-0.4c-0.2-0.2-0.4-0.6-0.4-0.9
				c0-0.7,0.6-1.3,1.3-1.3h6.6V10.6h-6.6c-0.4,0-0.7-0.1-0.9-0.4c-0.2-0.2-0.4-0.6-0.4-0.9c0-0.7,0.6-1.3,1.3-1.3h7.9
				c0.7,0,1.3,0.6,1.3,1.3v14.5h6.6c0.7,0,1.3,0.6,1.3,1.3c0,0.7-0.6,1.3-1.3,1.3L16.8,26.4z"/>
		</g>
		<g id="Group_75" transform="translate(186.977 7.918)">
			<path id="Path_35" class="st1" d="M31.3,15.8v-5.3H20.8c-0.7,0-1.4,0.3-1.9,0.8c-0.5,0.5-0.8,1.2-0.8,1.9c0,0.7,0.3,1.4,0.8,1.9
				c0.5,0.5,1.2,0.8,1.9,0.8L31.3,15.8z M20.8,18.5c-2.9,0-5.3-2.4-5.3-5.3c0-2.9,2.4-5.3,5.3-5.3h10.6V6.6c0-2.2-1.8-3.9-4-4H16.8
				c-0.4,0-0.7-0.1-0.9-0.4c-0.2-0.2-0.4-0.6-0.4-0.9c0-0.7,0.6-1.3,1.3-1.3h10.5C31,0,34,3,34,6.6v10.5c0,0.7-0.6,1.3-1.3,1.3H20.8
				z"/>
		</g>
		<g id="Group_76" transform="translate(210.528)">
			<path id="Path_36" class="st1" d="M16.8,26.4c-0.7,0-1.3-0.6-1.3-1.3c0,0,0,0,0,0c0-0.7,0.6-1.3,1.3-1.3h6.6V2.6h-6.6
				c-0.4,0-0.7-0.1-0.9-0.4c-0.2-0.2-0.4-0.6-0.4-0.9c0-0.7,0.6-1.3,1.3-1.3h7.9c0.7,0,1.3,0.6,1.3,1.3v22.4h6.6
				c0.7,0,1.3,0.6,1.3,1.3c0,0.7-0.6,1.3-1.3,1.3H16.8z"/>
		</g>
		<g id="Group_77" transform="translate(0 42.282)">
			<path id="Path_37" class="st1" d="M19.5,13.2h11.8V2.6H28L19.5,13.2z M15.5,14.3c0.1-0.2,0.1-0.5,0.3-0.7L26.3,0.5l0,0
				C26.6,0.2,27,0,27.4,0h5.3c0.7,0,1.3,0.6,1.3,1.3v21.1c0,0.7-0.6,1.3-1.3,1.3c-0.7,0-1.3-0.6-1.3-1.3c0,0,0,0,0,0v-6.6H18.1v6.6
				c0,0.7-0.6,1.3-1.3,1.3c-0.4,0-0.7-0.1-0.9-0.4c-0.2-0.2-0.4-0.6-0.4-0.9L15.5,14.3z"/>
		</g>
		<g id="Group_78" transform="translate(24.965 47.561)">
			<path id="Path_38" class="st1" d="M34,6.6c0,0.7-0.6,1.3-1.3,1.3c-0.7,0-1.3-0.6-1.3-1.3c0,0,0,0,0,0v-4h-7.9v13.2h4
				c0.7,0,1.3,0.6,1.3,1.3c0,0.7-0.6,1.3-1.3,1.3H16.8c-0.4,0-0.7-0.1-0.9-0.4c-0.2-0.2-0.4-0.6-0.4-0.9c0-0.7,0.6-1.3,1.3-1.3h4
				V2.6h-4c-0.4,0-0.7-0.1-0.9-0.4c-0.2-0.2-0.4-0.6-0.4-0.9c0-0.7,0.6-1.3,1.3-1.3h15.8C33.4,0,34,0.6,34,1.3L34,6.6z"/>
		</g>
		<g id="Group_79" transform="translate(48.509 39.637)">
			<path id="Path_39" class="st1" d="M32.7,23.8c0.7,0,1.3,0.6,1.3,1.3c0,0.7-0.6,1.3-1.3,1.3h-5.3c-3.6,0-6.6-3-6.6-6.6v-9.2h-4
				c-0.4,0-0.7-0.1-0.9-0.4c-0.2-0.2-0.4-0.6-0.4-0.9c0-0.7,0.6-1.3,1.3-1.3h4V1.3c0-0.7,0.6-1.3,1.3-1.3c0.7,0,1.3,0.6,1.3,1.3v6.6
				h9.2c0.7,0,1.3,0.6,1.3,1.3c0,0.7-0.6,1.3-1.3,1.3h-9.2v9.2c0,2.2,1.8,4,4,4c0,0,0,0,0,0H32.7z"/>
		</g>
		<g id="Group_80" transform="translate(72.067 39.65)">
			<path id="Path_40" class="st1" d="M24.7,2.6c-0.4,0-0.7-0.1-0.9-0.4c-0.2-0.2-0.4-0.6-0.4-0.9C23.4,0.6,24,0,24.7,0
				c0.7,0,1.3,0.6,1.3,1.3C26,2,25.5,2.6,24.7,2.6 M16.8,26.4c-0.4,0-0.7-0.1-0.9-0.4c-0.2-0.2-0.4-0.6-0.4-0.9
				c0-0.7,0.6-1.3,1.3-1.3h6.6V10.6h-6.6c-0.4,0-0.7-0.1-0.9-0.4c-0.2-0.2-0.4-0.6-0.4-0.9c0-0.7,0.6-1.3,1.3-1.3h7.9
				c0.7,0,1.3,0.6,1.3,1.3v14.5h6.6c0.7,0,1.3,0.6,1.3,1.3c0,0.7-0.6,1.3-1.3,1.3H16.8z"/>
		</g>
		<g id="Group_81" transform="translate(94.195 47.559)">
			<path id="Path_41" class="st1" d="M20.8,10.6c-2.9,0-5.3-2.4-5.3-5.3c0-2.9,2.4-5.3,5.3-5.3h11.9C33.4,0,34,0.6,34,1.3
				c0,0.7-0.6,1.3-1.3,1.3H20.8c-0.7,0-1.4,0.3-1.9,0.8c-0.5,0.5-0.8,1.2-0.8,1.9c0,0.7,0.3,1.4,0.8,1.9c0.5,0.5,1.2,0.8,1.9,0.8
				h7.9c2.9,0,5.3,2.4,5.3,5.3c0,2.9-2.4,5.2-5.3,5.3H16.8c-0.4,0-0.7-0.1-0.9-0.4c-0.2-0.2-0.4-0.6-0.4-0.9c0-0.7,0.6-1.3,1.3-1.3
				h11.9c1.4,0,2.6-1.1,2.6-2.6c0,0,0,0,0-0.1c0-1.4-1.1-2.6-2.6-2.6c0,0,0,0-0.1,0H20.8z"/>
		</g>
		<g id="Group_82" transform="translate(117.743 39.637)">
			<path id="Path_42" class="st1" d="M32.7,23.8c0.7,0,1.3,0.6,1.3,1.3c0,0.7-0.6,1.3-1.3,1.3h-5.3c-3.6,0-6.6-3-6.6-6.6v-9.2h-4
				c-0.4,0-0.7-0.1-0.9-0.4c-0.2-0.2-0.4-0.6-0.4-0.9c0-0.7,0.6-1.3,1.3-1.3h4V1.3c0-0.7,0.6-1.3,1.3-1.3c0.7,0,1.3,0.6,1.3,1.3v6.6
				h9.2c0.7,0,1.3,0.6,1.3,1.3c0,0.7-0.6,1.3-1.3,1.3h-9.2v9.2c0,2.2,1.8,4,4,4c0,0,0,0,0,0H32.7z"/>
		</g>
		<g id="Group_83" transform="translate(141.298 47.559)">
			<path id="Path_43" class="st1" d="M20.8,10.6c-2.9,0-5.3-2.4-5.3-5.3c0-2.9,2.4-5.3,5.3-5.3h11.9c0.7,0,1.3,0.6,1.3,1.3
				c0,0.7-0.6,1.3-1.3,1.3H20.8c-0.7,0-1.4,0.3-1.9,0.8c-0.5,0.5-0.8,1.2-0.8,1.9c0,0.7,0.3,1.4,0.8,1.9c0.5,0.5,1.2,0.8,1.9,0.8
				h7.9c2.9,0,5.3,2.4,5.3,5.3c0,2.9-2.4,5.3-5.3,5.3H16.8c-0.4,0-0.7-0.1-0.9-0.4c-0.2-0.2-0.4-0.6-0.4-0.9c0-0.7,0.6-1.3,1.3-1.3
				h11.9c1.5,0,2.7-1.1,2.7-2.6c0-1.5-1.1-2.7-2.6-2.7c0,0-0.1,0-0.1,0H20.8z"/>
		</g>
	</g>
</g>
</svg>
