<?xml version="1.0" encoding="utf-8"?>
<!-- Generator: Adobe Illustrator 26.0.2, SVG Export Plug-In . SVG Version: 6.00 Build 0)  -->
<svg version="1.1" id="Layer_1" xmlns="http://www.w3.org/2000/svg" xmlns:xlink="http://www.w3.org/1999/xlink" x="0px" y="0px"
	 viewBox="0 0 207.3 34.5" style="enable-background:new 0 0 207.3 34.5;" xml:space="preserve">
<style type="text/css">
	.st0{fill:#FFFFFF;}
</style>
<g id="Group_62" transform="translate(0 0.102)">
	<g>
		<g id="Group_61">
			<path id="Path_39" class="st0" d="M192.2,9.5h-5.1v6.4h5c2.5,0,3.8-1.3,3.8-3.2C195.9,10.9,194.7,9.5,192.2,9.5"/>
			<path id="Path_40" class="st0" d="M201.4-0.1h-40.1c-3.2,0-5.9,2.6-5.9,5.9v22.8c0,3.2,2.6,5.9,5.9,5.9h40.1
				c3.2,0,5.9-2.6,5.9-5.9V5.8C207.3,2.5,204.7-0.1,201.4-0.1 M172.9,28.8h-4.2l-7.8-23h4.9l4.1,13.3c0.5,1.5,1,3.7,1,3.7h0.1
				c0,0,0.5-2.2,1-3.7l4-13.3h4.7L172.9,28.8z M195,21.8c-0.6-1.5-2-2.3-4.1-2.3h-3.8v9.2h-4.7v-23H193c4.4,0,7.4,2.6,7.4,6.4
				c0.2,2.7-1.6,5-4.2,5.6v0.1c2.1,0.6,3.2,1.8,3.5,4.6c0.3,3.3,0.2,5.7,1,6.1l0,0.2h-4.5c-0.6-0.3-0.6-2.8-0.8-5.3
				C195.3,22.8,195.2,22.3,195,21.8"/>
			<path id="Path_41" class="st0" d="M0,5.7h10.3c2-0.1,4,0.5,5.6,1.7c1.2,1.1,1.9,2.7,1.8,4.3c0,2.4-1.4,3.9-3.6,4.6v0.1
				c2.6,0.7,4.3,3,4.3,5.7c0.1,1.8-0.6,3.6-2,4.8c-1.6,1.3-3.7,1.9-5.8,1.8H0V5.7z M9.7,14.9c2,0,3.4-1,3.4-2.8
				c0-1.7-1.3-2.7-3.3-2.7H4.7v5.5H9.7z M4.7,24.8H10c2.3,0,3.6-1.3,3.6-3.1c0-2.2-1.6-3.3-3.7-3.3H4.7V24.8z"/>
			<path id="Path_42" class="st0" d="M21.1,5.7H38v3.9H25.8v5.2h10.8v3.8H25.8v6.2h12.4v3.9h-17V5.7z"/>
			<path id="Path_43" class="st0" d="M39.9,21.6h4.6c0.3,2.8,1.9,3.9,5.2,3.9c2.4,0,4.5-0.8,4.5-3c0-2.3-2.2-2.7-5.7-3.5
				c-4.1-0.9-7.9-2-7.9-6.8c0-4.5,3.7-6.9,8.8-6.9c5.2,0,8.5,2.5,8.9,7.2h-4.5C53.5,10.1,51.7,9,49.3,9c-2.5,0-4.2,1.1-4.2,2.7
				c0,1.9,1.6,2.4,5,3.2c4.7,1,8.6,2.2,8.6,7.1c0,4.7-3.8,7.3-8.9,7.3C43.6,29.2,40,26.4,39.9,21.6"/>
			<path id="Path_44" class="st0" d="M61.5,5.7h10.1c2.2-0.1,4.4,0.6,6,2.2c1.4,1.4,2.1,3.3,2.1,5.2c0,4.3-2.9,7.3-7.7,7.3h-5.7v8.3
				h-4.8L61.5,5.7z M66.4,16.5h4.8c2.4,0,3.7-1.4,3.7-3.4c0-2.2-1.4-3.4-3.7-3.4h-4.9L66.4,16.5z"/>
			<path id="Path_45" class="st0" d="M81.4,17.2c0-6.9,4.3-12,11.1-12s11.1,5.1,11.1,12s-4.3,12-11.1,12S81.4,24.1,81.4,17.2
				 M98.8,17.2c0-4.6-2.1-8.2-6.3-8.2s-6.4,3.6-6.4,8.2c0,4.6,2.2,8.1,6.4,8.1S98.8,21.8,98.8,17.2"/>
			<path id="Path_46" class="st0" d="M106.1,5.7h4.7v9.2l8.9-9.2h5.8l-9,9.2l9.6,13.8h-5.5l-7.4-10.8l-2.4,2.4v8.4h-4.7V5.7z"/>
			<path id="Path_47" class="st0" d="M127.8,5.7h16.9v3.9h-12.3v5.2h10.8v3.8h-10.8v6.2h12.4v3.9h-17V5.7z"/>
		</g>
	</g>
</g>
</svg>
