<svg xmlns="http://www.w3.org/2000/svg" xmlns:xlink="http://www.w3.org/1999/xlink" width="251.784" height="48.019" viewBox="0 0 251.784 48.019">
  <defs>
    <clipPath id="clip-path">
      <rect id="Rectangle_160" data-name="Rectangle 160" width="251.784" height="48.019" fill="none"/>
    </clipPath>
  </defs>
  <g id="Group_92" data-name="Group 92" clip-path="url(#clip-path)">
    <path id="Path_83" data-name="Path 83" d="M366.319,11.142h-3.966V10.1A6.4,6.4,0,0,0,362,7.713c-.388-.775-1.759-1.342-3.161-1.342-4.353,0-5.874,3.936-5.874,7.783a10.03,10.03,0,0,0,1.1,4.92A6.13,6.13,0,0,0,359.371,22a11.643,11.643,0,0,0,6.858-2.326v3.966a13.107,13.107,0,0,1-7.574,2.3c-8.677,0-10.556-7.007-10.556-11.182.03-4.98,2.5-11.45,11.033-11.45A14.707,14.707,0,0,1,366.319,5Z" transform="translate(-244.303 -2.316)"/>
    <path id="Path_84" data-name="Path 84" d="M418.582,26.789A11.938,11.938,0,0,1,424.9,25c5.4,0,6.053,2.982,6.053,5.337v5.487c0,1.223.179,1.819.924,1.819a3.127,3.127,0,0,0,1.073-.268V40a9.225,9.225,0,0,1-3.7.924,2.423,2.423,0,0,1-2.535-1.789,6.592,6.592,0,0,1-4.532,1.789c-2.5,0-4.89-1.014-4.89-4.294,0-3.161,2.713-4.294,4-4.681,1.014-.3,2.743-.805,3.012-.865l2.147-.477c0-1.223-.089-2.952-2.326-2.952-2.117,0-2.117,1.163-2.117,2.356V30.4h-3.459V26.789Zm7.932,6.172c-2.922.805-4.771,1.372-4.771,3.25a1.925,1.925,0,0,0,2,2,2.607,2.607,0,0,0,1.342-.388c.6-.328,1.4-.954,1.4-3.161v-1.7Z" transform="translate(-292.869 -17.545)"/>
    <path id="Path_85" data-name="Path 85" d="M477.072,25.328a17.6,17.6,0,0,1,.268,2.087,5.071,5.071,0,0,1,4.5-2.415,4.163,4.163,0,0,1,4.324,2.863A5.521,5.521,0,0,1,491.057,25a4.662,4.662,0,0,1,4.145,2.117,6.478,6.478,0,0,1,.686,3.459v6.053c0,.924,0,1.312,1.282,1.312h.417v2.535h-7.932V37.941h.6c.895,0,.924-.477.924-1.014V31.769c0-1.312-.03-3.22-1.968-3.22-2.028,0-2.713,1.908-2.713,3.936v4.175c0,.984.03,1.312.984,1.312h.567v2.535H480.5V37.971h.417c1.044,0,1.044-.239,1.073-1.133V31.59c0-1.193,0-3.071-2-3.071a2.49,2.49,0,0,0-2.385,1.789,12.076,12.076,0,0,0-.268,2.475v3.787c0,.924,0,1.431.954,1.431h.6v2.535h-7.812V38h.417c1.312,0,1.312-.388,1.312-1.312v-7.1c0-.686-.03-1.223-.984-1.223H470.9V25.924Z" transform="translate(-330.487 -17.545)"/>
    <path id="Path_86" data-name="Path 86" d="M564.16,2.3v8.707h.06A4.823,4.823,0,0,1,568.573,8.8c4.98,0,5.964,4.89,5.964,7.425,0,3.25-1.461,8.5-6.858,8.5a5.961,5.961,0,0,1-4.294-1.759l-.924,1.759h-2.833V6.892c0-1.133-.119-1.61-1.133-1.61H557.6V2.837Zm-.209,14.79c0,1.551.388,4.324,2.922,4.324,2.862,0,2.862-3.847,2.862-4.711,0-1.879-.447-4.383-2.8-4.383-2.982,0-2.982,3.936-2.982,4.771" transform="translate(-391.334 -1.614)"/>
    <path id="Path_87" data-name="Path 87" d="M619.864,25.879a11.187,11.187,0,0,1,.3,2.594h.06a4.339,4.339,0,0,1,5.9-2.356V30.8h-2.8c0-.507,0-1.133-.745-1.133-.686,0-2.385.745-2.385,5.1v2.594c0,.835.119,1.133,1.223,1.133h.805v2.535h-8.17V38.492h.447c1.133,0,1.312-.239,1.312-1.312V30.053c0-.954-.149-1.252-.954-1.252H613.9V26.3Z" transform="translate(-430.847 -18.037)"/>
    <path id="Path_88" data-name="Path 88" d="M662.5,20.863c0,1.849,0,1.879,1.7,1.879v2.535h-8.111V22.741h.775c1.163,0,1.163-.239,1.163-1.938V15.317c0-1.938,0-2.3-.924-2.3-.3,0-.388,0-1.1.03v-2.5l6.53-.6V20.863Zm.119-15.356c0,1.7-1.551,2.3-2.743,2.3-1.133,0-2.862-.417-2.862-2.266,0-.805.447-2.236,2.8-2.236,2.147,0,2.8,1.193,2.8,2.207" transform="translate(-460.393 -2.316)"/>
    <path id="Path_89" data-name="Path 89" d="M700.879,20.763c0,1.461.149,1.7,1.878,1.551v2.5l-5.993.388a8.917,8.917,0,0,1-.3-2.057h-.06a4.538,4.538,0,0,1-4.383,2.5c-5.159,0-6.023-5.039-6.023-7.574,0-4.92,2.624-8.439,6.471-8.439a5.064,5.064,0,0,1,3.876,1.64V8.12c0-1.342,0-1.879-1.133-1.879h-.865V3.767l6.56-.567V20.763ZM693.6,22.045c1.014,0,2.952-.745,2.952-4.622,0-3.608-1.64-4.5-2.922-4.5-2.057,0-2.833,2.207-2.833,4.592,0,.745,0,4.532,2.8,4.532" transform="translate(-481.448 -2.246)"/>
    <path id="Path_90" data-name="Path 90" d="M757.542,27.91h-2.326a5,5,0,0,1,.775,2.743,4.751,4.751,0,0,1-2.326,4.145,7.838,7.838,0,0,1-3.876.924c-1.252.06-2.594.119-2.594,1.044,0,.805,1.58.954,2.3.954.239.03,1.521.06,1.729.06,3.966.089,6.441,1.1,6.441,4.175,0,5.4-6.858,5.4-8.558,5.4-3.429,0-7.6-.507-7.6-3.668,0-2.535,2.684-3.041,3.608-3.191v-.06a2.459,2.459,0,0,1-2.117-2.326c0-1.7,1.64-2.594,3.012-3.012v-.06a4.687,4.687,0,0,1-3.28-4.711c0-2.922,1.938-5.725,6.709-5.725a7.281,7.281,0,0,1,3.071.537h5.069V27.91ZM745.734,43.117c0,1.64,3.131,1.7,3.936,1.7,1.521,0,4-.3,4-1.819,0-1.312-2.385-1.461-3.966-1.461-.805,0-3.966,0-3.966,1.58m1.312-12.762c0,1.252.537,3.071,2.266,3.071.984,0,2.326-.6,2.326-3.28,0-.984-.149-3.28-2.266-3.28-2.3-.03-2.326,2.922-2.326,3.489" transform="translate(-520.399 -17.265)"/>
    <path id="Path_91" data-name="Path 91" d="M801.322,33.477a3.753,3.753,0,0,0,3.966,3.817,9.755,9.755,0,0,0,5.1-1.759v3.638a12.209,12.209,0,0,1-6.351,1.729c-6.113,0-7.335-4.98-7.335-7.783,0-4.085,2.236-8.319,7.484-8.319,6.679,0,6.62,6.59,6.62,8.707h-9.482Zm5.218-2.713c-.06-3.22-2.177-3.25-2.445-3.25-1.551,0-2.624,1.431-2.743,3.25Z" transform="translate(-559.139 -17.405)"/>
    <path id="Path_92" data-name="Path 92" d="M362.289,103.7v3.429h-2.147v-.656c0-.686-.268-.745-.924-.745h-2.8v3.28h2.147c.3,0,.388-.03.388-.417v-.567h2.057v4.145h-2.057v-.686c0-.239-.06-.417-.388-.417h-2.147v3.668h3.041c.865,0,.895-.239.895-.835v-.775H362.5v3.608H352.3v-1.67h.477c.775,0,.775-.239.775-.865V106.2c0-.537-.03-.835-.775-.835H352.3V103.7Z" transform="translate(-247.251 -72.779)"/>
    <path id="Path_93" data-name="Path 93" d="M400.024,113.175c0,.895.089,1.044,1.133.954v1.521l-3.668.239a4.6,4.6,0,0,1-.179-1.252h-.03a2.772,2.772,0,0,1-2.684,1.521c-3.161,0-3.7-3.071-3.7-4.622,0-3.012,1.61-5.159,3.966-5.159a3.124,3.124,0,0,1,2.356.984v-1.908c0-.835,0-1.133-.686-1.133h-.507v-1.491l4-.328Zm-4.443.775c.626,0,1.819-.447,1.819-2.8,0-2.207-.984-2.743-1.789-2.743-1.252,0-1.729,1.342-1.729,2.8,0,.447,0,2.743,1.7,2.743" transform="translate(-274.341 -71.936)"/>
    <path id="Path_94" data-name="Path 94" d="M430.625,116v5.665c0,.626,0,1.819,1.223,1.819,1.64,0,1.64-1.879,1.64-2.475v-2.147c0-.537-.03-.716-.179-.835a2.244,2.244,0,0,0-1.014-.119v-1.521l3.936-.358V122.8c0,.537.03.835.507.835h.656v1.491l-3.727.3a5.319,5.319,0,0,1-.179-1.312h-.03a3.029,3.029,0,0,1-2.773,1.551,2.793,2.793,0,0,1-2.713-1.64,7.947,7.947,0,0,1-.239-1.729v-3.25c0-.656,0-.745-.089-.895-.089-.179-.119-.239-1.044-.239v-1.521Z" transform="translate(-299.396 -81.411)"/>
    <path id="Path_95" data-name="Path 95" d="M473.891,119.5h-2.117v-.865c0-.477,0-1.342-1.193-1.342-1.7,0-2.028,1.908-2.028,2.773,0,1.64.716,3.012,2.445,3.012a5.409,5.409,0,0,0,2.8-.924v2.117a6.1,6.1,0,0,1-3.489,1.073c-3.727,0-4.413-3.131-4.413-4.652,0-3.7,2.385-5.188,4.8-5.188a7.08,7.08,0,0,1,3.191.805Z" transform="translate(-326.978 -81.06)"/>
    <path id="Path_96" data-name="Path 96" d="M497.975,116.7a7.139,7.139,0,0,1,3.876-1.1c3.31,0,3.7,1.819,3.7,3.28v3.34c0,.745.119,1.1.567,1.1a1.73,1.73,0,0,0,.656-.179v1.61a5.683,5.683,0,0,1-2.266.567,1.478,1.478,0,0,1-1.551-1.073,4.038,4.038,0,0,1-2.773,1.073c-1.521,0-2.982-.626-2.982-2.624a3.024,3.024,0,0,1,2.445-2.863c.626-.179,1.67-.477,1.849-.537l1.312-.3c0-.745-.06-1.819-1.431-1.819-1.282,0-1.282.716-1.282,1.461v.239h-2.117Zm4.86,3.787c-1.789.477-2.922.835-2.922,2a1.173,1.173,0,0,0,1.223,1.223,1.687,1.687,0,0,0,.835-.239c.358-.209.865-.6.865-1.938Z" transform="translate(-348.945 -81.13)"/>
    <path id="Path_97" data-name="Path 97" d="M534.466,106.83v2.863h2.207v1.968h-2.207v3.787c0,.6,0,1.461.895,1.461a4.621,4.621,0,0,0,1.372-.358v1.908a5.582,5.582,0,0,1-2.624.626c-2.475,0-2.475-1.938-2.475-2.773v-4.681H530.5v-1.61a3.364,3.364,0,0,0,2.266-3.22h1.7Z" transform="translate(-372.315 -74.954)"/>
    <path id="Path_98" data-name="Path 98" d="M558.066,113.135c0,1.133,0,1.163,1.044,1.163v1.551h-4.95V114.3h.477c.716,0,.716-.149.716-1.193v-3.369c0-1.193,0-1.4-.567-1.4-.179,0-.239,0-.686.03v-1.521l4-.358v6.649Zm.06-9.393a1.492,1.492,0,0,1-1.67,1.4c-.686,0-1.759-.268-1.759-1.372,0-.477.268-1.372,1.7-1.372,1.342,0,1.729.716,1.729,1.342" transform="translate(-388.878 -71.866)"/>
    <path id="Path_99" data-name="Path 99" d="M578.762,125.34c-3.936,0-4.562-3.22-4.562-4.711,0-2.087.924-5.129,4.771-5.129a4.3,4.3,0,0,1,4.681,4.652c0,2.535-1.223,5.188-4.89,5.188m.179-7.961c-1.789,0-1.938,2.326-1.938,3.131,0,.328.03,2.922,1.968,2.922,1.64,0,1.908-1.938,1.908-3.161-.03-.507-.03-2.892-1.938-2.892" transform="translate(-402.985 -81.06)"/>
    <path id="Path_100" data-name="Path 100" d="M614.231,125.082h-4.711v-1.551c.984,0,1.044,0,1.044-1.1v-3.34c0-.388,0-1.193-.179-1.372-.149-.119-.477-.119-.984-.089v-1.521l3.727-.3a4.363,4.363,0,0,1,.179,1.312h.03a2.99,2.99,0,0,1,2.743-1.521,2.752,2.752,0,0,1,2.773,1.7,6.9,6.9,0,0,1,.239,2.057v3.012c0,1.133,0,1.163,1.044,1.163v1.551h-4.86v-1.551c.924,0,.924-.03.924-1.193v-2.475c0-1.073-.03-2.147-1.252-2.147-1.61,0-1.61,1.849-1.61,2.535v2.057c0,1.133,0,1.193.924,1.193v1.58Z" transform="translate(-427.689 -81.13)"/>
    <path id="Path_101" data-name="Path 101" d="M674.845,106.425a2.415,2.415,0,0,0-.209-1.193,2.309,2.309,0,0,0-2-.895c-2.475,0-3.668,2.147-3.668,4.89,0,2.654,1.073,4.8,3.727,4.8a4.789,4.789,0,0,0,1.759-.358v-1.908c0-.507-.03-.805-.805-.805h-.507v-1.67h5.337v1.67h-.537c-.537,0-.775.149-.775.775V115.1a9.727,9.727,0,0,1-4.592,1.133c-2.535,0-3.787-.716-4.771-1.7a7.109,7.109,0,0,1-1.908-5.1c0-3.191,1.7-7.037,6.888-7.037a9.324,9.324,0,0,1,4.443,1.014v3.727h-2.415v-.716Z" transform="translate(-467.341 -71.866)"/>
    <path id="Path_102" data-name="Path 102" d="M714.2,116.119a5.181,5.181,0,0,1,.179,1.58h.03a2.961,2.961,0,0,1,2.475-1.7,2.845,2.845,0,0,1,1.133.268v2.863h-1.7c0-.328,0-.686-.447-.686-.417,0-1.461.447-1.461,3.131v1.58c0,.507.089.686.745.686h.477v1.551h-5.01v-1.551h.268c.686,0,.805-.149.805-.805v-4.353c0-.567-.089-.775-.6-.775h-.6v-1.521Z" transform="translate(-498.643 -81.411)"/>
    <path id="Path_103" data-name="Path 103" d="M742.862,125.34c-3.936,0-4.562-3.22-4.562-4.711,0-2.087.954-5.129,4.771-5.129a4.3,4.3,0,0,1,4.682,4.652c0,2.535-1.252,5.188-4.89,5.188m.149-7.961c-1.789,0-1.938,2.326-1.938,3.131,0,.328.03,2.922,1.968,2.922,1.64,0,1.908-1.938,1.908-3.161,0-.507,0-2.892-1.938-2.892" transform="translate(-518.153 -81.06)"/>
    <path id="Path_104" data-name="Path 104" d="M776.525,116v5.665c0,.626,0,1.819,1.223,1.819,1.64,0,1.64-1.879,1.64-2.475v-2.147c0-.537-.03-.716-.179-.835a2.244,2.244,0,0,0-1.014-.119v-1.521l3.936-.358V122.8c0,.537.03.835.507.835h.656v1.491l-3.727.3a5.322,5.322,0,0,1-.179-1.312h-.03a3.029,3.029,0,0,1-2.773,1.551,2.793,2.793,0,0,1-2.713-1.64,7.949,7.949,0,0,1-.239-1.729v-3.25c0-.656,0-.745-.089-.895-.089-.179-.119-.239-1.044-.239v-1.521Z" transform="translate(-542.155 -81.411)"/>
    <path id="Path_105" data-name="Path 105" d="M813.906,126.633c0,.775.119.865.865.865h.388v1.551h-5.1V127.5h.268c.656,0,.835-.03.835-.954v-7.514c0-1.044-.03-1.252-.239-1.342-.179-.089-.358-.089-.924-.06v-1.491l3.727-.268a5.807,5.807,0,0,1,.149,1.282h.03a2.922,2.922,0,0,1,2.713-1.551c2.564,0,3.638,2.326,3.638,4.592,0,1.938-.894,5.129-3.966,5.129a3.3,3.3,0,0,1-2.385-1.014Zm-.119-5.874c0,1.61.626,2.624,1.789,2.624,1.729,0,1.729-2.385,1.729-2.833s0-2.743-1.7-2.743c-1.431,0-1.819,1.64-1.819,2.684Z" transform="translate(-568.474 -81.13)"/>
    <path id="Path_106" data-name="Path 106" d="M92.168,22.542c1.551-.984,3.041-1.372,3.936-.745a2.961,2.961,0,0,0-3.429-1.908c-.03-.03-.06-.03-.119-.03,0,0-.089,0-.119.03l-.239.089a7,7,0,0,0-1.67.686l-4.5,1.879-.06-.089a4.725,4.725,0,0,1,4.2-3.041c-3.459-1.789-6.441,1.64-6.769,3.041a10.3,10.3,0,0,0-.119,2l-.179.626a5.419,5.419,0,0,1-2.743,1.7c-1.64.537-2.863-1.879-5.487-4.234L71,18.785l.477.268a11.649,11.649,0,0,0,1.819,1.461,35.276,35.276,0,0,0,3.489,2.236c.626-.239,1.849-2.147.924-3.25a2.951,2.951,0,0,0,.179-2.117,4.836,4.836,0,0,0-1.163,1.372,3.626,3.626,0,0,1-2.684-3.1,6.671,6.671,0,0,1,5.308,2.087,3.8,3.8,0,0,0,4.145,1.133c1.1-.358,1.879-2.207,1.491-2.863a3.372,3.372,0,0,1-1.4,1.7c-1.342.865-3.191.089-4.234-1.044-.984-1.073-2.743-2.743-5.159-2.3a2.218,2.218,0,0,1,2.028-1.67c1.879-.179,3.25.179,4.2,1.342a21.093,21.093,0,0,0-.358,2.5,4.237,4.237,0,0,0,1.312-1.4,1.8,1.8,0,0,0,1.4-.268A7.036,7.036,0,0,0,84,12.464a2.61,2.61,0,0,1-.775-.388l.209-.447a2.745,2.745,0,0,0,.984.447,1.855,1.855,0,0,0,.984-.6,1.341,1.341,0,0,0,.268-1.521c-.268-.567-2.5-1.193-2.5-1.193a16.6,16.6,0,0,0-2.028-1.223,4.624,4.624,0,0,0-2.266-2.3c-1.1-.537-2.028-.984-2.624-1.342A5.461,5.461,0,0,0,72.488.835C71.355.805,71.444.716,71,.865c2.028,1.044,2.415,2.535,2.385,3.369C72.488,3.22,71,.865,68.641,0a5.532,5.532,0,0,0-1.1,4.383c.089,1.073.984,1.759,1.849,2.445-.984-.358-2-.686-2.356-1.759A4.033,4.033,0,0,1,67,2.3c-1.491.268-4.055-.06-4.831-1.819a4.148,4.148,0,0,0,.447,2.982c.179.239.358.477.567.716-1.551-.209-4.413-.537-5.9-.745.268,1.044,2.713,1.849,2.654,3.727-2.535-.328-4.532-.805-4.86-1.58-.447,1.372.924,2.743,2.594,3.757C55.76,10.7,53.851,8.26,53.136,8.2c.477,1.342,1.342,3.31,2.5,3.7-1.491.358-2.624.328-3.012-.3a3.7,3.7,0,0,0,1.789,3.071c-2.475-.895-3.638.477-4.831.239a13.041,13.041,0,0,0,4.175,2.535c-2.266.775-5.159,1.67-5.665.835.089,3.25,4.86,2.564,6.411,3.847-.775.149-1.938.328-3.131.447a13.731,13.731,0,0,1-6.083-1.163c-8.975-5.278-14.432-4.294-18.4-2.982A10.7,10.7,0,0,0,22.453,22.1c-.6.03-1.282.06-2.028.089a23.5,23.5,0,0,1-7.812-.954c-2.117-.745-3.548-1.968-3.548-3.817a3.355,3.355,0,0,1,2.087-3.28,5.612,5.612,0,0,1,2.087-.477c4.324,0,7.932,0,11.719,1.193a41.253,41.253,0,0,0,13,2.385c5.457,0,8.409-1.521,9.989-3.25a6.833,6.833,0,0,0,1.819-4.443,5.8,5.8,0,0,0-1.64-4.2C46.785,4,44.4,2.952,40.225,2.952a32.88,32.88,0,0,0-9.184,1.193c-1.312.3-4.234-1.58-4.443-3.041-1.044,2.863.447,4.592,2.266,5.546a3.4,3.4,0,0,0,.328.328,2.993,2.993,0,0,1-2.207-1.193c.149,4.98,6.023,4.294,7.9,3.817a14.17,14.17,0,0,0,2.028-.865,13.771,13.771,0,0,0,2.773-1.073,8.841,8.841,0,0,1,3.847-1.372,4.223,4.223,0,0,1,2.922.865,2.927,2.927,0,0,1,.924,2.326,5.076,5.076,0,0,1-1.252,3.25c-1.193,1.342-3.489,2.564-7.9,2.564s-8.588-1.312-12.643-2.624a37.3,37.3,0,0,0-11.868-1.431c-3.906,0-6.023,1.312-7.127,2.713a5.8,5.8,0,0,0-1.252,3.191,5.49,5.49,0,0,0,1.64,4.234c1.789,1.879,5.546,3.7,13.358,3.757h.03a.321.321,0,0,1,.3.3v.06a.231.231,0,0,0-.03.089,17.9,17.9,0,0,1-2.028,3.191c-1.431,1.819-3.519,3.638-6.083,3.638-1.789,0-3.191-.06-4.294-.119a12.633,12.633,0,0,1-4.2-1.7s-.149.268.626,1.551a3.144,3.144,0,0,0,.239.388,3.9,3.9,0,0,1-1.879.537H2.594a.294.294,0,0,0-.268.3.252.252,0,0,0,.06.179v.03l.268.268c.119.119.507.567.417.745s-.865,0-.865,0H1.759a.3.3,0,0,0-.3.3.271.271,0,0,0,.089.209l.3.3.179.179s.388.447-.149.626H1.193a.3.3,0,0,0-.3.3.271.271,0,0,0,.089.209l.328.328a1.852,1.852,0,0,1,.06,1.789l-.477.895L.06,41.268l-.03.06c0,.03-.03.089-.03.119a.3.3,0,0,0,.3.3H2A6.962,6.962,0,0,0,2.5,44.4a5.62,5.62,0,0,0,4,3.4h.06a.324.324,0,0,0,.3-.209v-.06l.089-.388.149-.716,1.58.268,1.312.239a.321.321,0,0,0,.3-.239v-.06l.03-.507.03-.567c1.7.358,2.863.656,2.773,1.67,1.4-2.207-1.044-3.429-1.908-3.7-.417-.239-.924-.537-1.4-.835-1.372-.865-2.773-1.879-2.833-2.475s.417-1.252,1.223-1.759a6.532,6.532,0,0,1,3.369-.865,33.765,33.765,0,0,1,5.4.656,29.911,29.911,0,0,1,4,.895S23.5,40.463,26.3,42.222c2.564,1.61,5.337,3.578,6.649,5.278l.537-.06.119-.388.328-.924A9.8,9.8,0,0,0,35.752,47.2a7.935,7.935,0,0,0,3.817.805h.089a.321.321,0,0,0,.239-.3.3.3,0,0,0-.03-.119L39.151,46.1l.954-.089c1.431.328,2.385.656,2.3,1.551a2,2,0,0,0,.209-2.117c0-.06-.03-.089-.089-.149a3.279,3.279,0,0,0-1.4-1.163c1.193.03,2,.239,2.385.865.358-2.743-4-3.1-5.427-3.071a13.024,13.024,0,0,0-1.67.239,11.638,11.638,0,0,1-1.879-.686c-1.163-.537-2.057-1.163-2.057-1.61s.179-.805.865-1.1a11.231,11.231,0,0,1,3.817-.447,11.605,11.605,0,0,0,4.8-.686,2.983,2.983,0,0,0,1.521-1.61c.03-.119.089-.239.119-.358.239-.477.924-1.252,2.713-.626,1.223.447,2.266.388,2.266,1.073V36.8c0,.179,0,.507.179.507,0,0,1.7,1.073,2.564.179a2.016,2.016,0,0,1-1.073.775c-1.223.328,2.743,1.729,5.1.477l-2,1.849s5.487.954,6.918-.537A59.767,59.767,0,0,0,65.3,43.3c1.223.567.984.656,1.551.388.567-.3.358-1.014,1.67-.388.358.358.805.745,1.312,1.163a12.022,12.022,0,0,0,4.652,2.594h.089a.261.261,0,0,0,.268-.179v-.03l.239-.716.03-.089.089-.3a2.756,2.756,0,0,0,.268.149l.119.06a14.324,14.324,0,0,0,2.833.954,8.1,8.1,0,0,0,6.172-.537l.06-.03a.313.313,0,0,0,.149-.268c0-.06,0-.089-.03-.119l-.03-.06-.3-.447-.3-.447-.03-.06-.179-.268.3-.149.119-.06,1.163-.507.895-.388.119-.06a.368.368,0,0,0,.119-.239.236.236,0,0,0-.149-.239l-.239-.119-2.207-.954c1.849-.895,3.191-1.282,3.966-.268-.567-3.847-4.831-2.8-6.172-2.266a9.009,9.009,0,0,0-1.759,1.133,7.37,7.37,0,0,1-3.012.656c-1.58,0-3.4-1.4-4.86-2.892a19.229,19.229,0,0,1-2.713-3.4l3.638.417,2.564.3a7.837,7.837,0,0,0,2.8.239c.954-.239-1.342-.567-.119-1.252.626-.358,2.177.06,2.624-.03s-.6-.567-.3-1.1,2.3-.745,2.863-.954-1.342-1.014.328-2.385a12.349,12.349,0,0,1,1.461-.805,20.98,20.98,0,0,1,8.945-1.431.3.3,0,0,0,.3-.3.271.271,0,0,0-.119-.239l-.775-.567-1.551-1.133c2.057-1.073,3.519-1.61,4.353-.447-.239-2.743-2.594-3.012-4.353-2.684M78.9,8.2c.895-.209,1.163-.507,1.252-1.1a.747.747,0,0,1,.358.805c-.119.358-.537.507-1.193.626,0,.626-.537,1.282-1.7,1.073-.924-.179-.895-.656-.895-.835-.417-.089-.745-.567-.835-.656A7.1,7.1,0,0,0,78.9,8.2M68.254,7.037h0c0-.03,0,0,.03,0Z"/>
  </g>
</svg>
