<svg xmlns="http://www.w3.org/2000/svg" xmlns:xlink="http://www.w3.org/1999/xlink" width="217.852" height="90.111" viewBox="0 0 217.852 90.111">
  <defs>
    <clipPath id="clip-path">
      <rect id="Rectangle_161" data-name="Rectangle 161" width="217.852" height="90.11" fill="none"/>
    </clipPath>
  </defs>
  <g id="Group_94" data-name="Group 94" clip-path="url(#clip-path)">
    <path id="Path_107" data-name="Path 107" d="M187.471,96.794c2.125,0,3.5-1.072,4.7-3.987l5.921-14.576h-2.234l-4.541,11.761-5.131-11.761h-2.325l6.412,14.058c-.845,1.989-1.635,2.643-2.888,2.643a4.439,4.439,0,0,1-2.216-.518l-.708,1.662a6.352,6.352,0,0,0,3.006.717m-7.946-4.2a5.314,5.314,0,0,0,2.543-.6V90.173a4.442,4.442,0,0,1-2.052.49,2.08,2.08,0,0,1-2.37-2.343V80.075h4.477V78.258h-4.477V73.972h-2.107v4.259h-1.962v1.816h1.962v8.519c0,2.87,1.726,3.987,3.987,3.987m-11.161-.245h2.1V78.231h-2.1Zm-.136-17.2h2.4V72.782h-2.4ZM159.781,92.58c2.815,0,5.022-1.562,5.022-4.232v-.054c0-2.543-2.343-3.387-4.541-4.041-1.88-.572-3.633-1.09-3.633-2.434v-.054c0-1.172,1.072-2.043,2.725-2.043a8.017,8.017,0,0,1,4.178,1.362l.908-1.58a9.662,9.662,0,0,0-5.077-1.553c-2.788,0-4.8,1.607-4.8,4.032v.054c0,2.6,2.452,3.36,4.668,3.987,1.816.518,3.524,1.072,3.524,2.488v.054c0,1.362-1.235,2.234-2.924,2.234a8.256,8.256,0,0,1-4.886-1.816l-1.063,1.5a9.659,9.659,0,0,0,5.84,2.08m-15.176-.272h2.1v-5.6c0-4.25,2.516-6.466,5.594-6.466h.163V77.959a6.039,6.039,0,0,0-5.758,3.923V78.2h-2.1ZM130.184,84.4c.3-2.725,2.152-4.75,4.586-4.75,2.779,0,4.259,2.18,4.541,4.75Zm0,1.689h11.307v-.736c0-4.15-2.4-7.474-6.575-7.474-3.905,0-6.775,3.269-6.775,7.365a7.029,7.029,0,0,0,6.676,7.366c.124.005.247.009.371.008A7.267,7.267,0,0,0,141,89.965l-1.326-1.117a5.849,5.849,0,0,1-4.45,1.989,4.922,4.922,0,0,1-4.968-4.7m-11.2,6.312h1.816l6.139-14.222h-2.261l-4.777,11.706-4.75-11.706H112.9Zm-11.171-.109H110V78.231h-2.107Zm-.136-17.2h2.407V72.818h-2.407Zm-16.347,17.2h2.1V84.261a4.151,4.151,0,0,1,3.868-4.415c.121-.008.242-.011.364-.008,2.488,0,3.905,1.635,3.905,4.259v8.246h2.1V83.58c0-3.36-1.989-5.649-5.4-5.649A5.339,5.339,0,0,0,93.5,80.656V78.2h-2.1Zm-12.179.3c4.777,0,7.974-2.9,7.974-8.464V73.236H85.039V84.343c0,4.178-2.234,6.3-5.758,6.3s-5.84-2.316-5.84-6.439V73.236H71.28V84.343c0,5.449,3.224,8.3,7.946,8.3" transform="translate(-6.546 -6.683)"/>
    <path id="Path_108" data-name="Path 108" d="M198.4,61.1V59.37h-.118a5.541,5.541,0,0,1-2.379-.472c-.681-.318-1.017-1.081-1.017-2.3V47.873a11.629,11.629,0,0,1,.454-3.306,5.218,5.218,0,0,1,1.489-2.461,4.1,4.1,0,0,1,2.861-.908,3.734,3.734,0,0,1,3.369,1.489,7.668,7.668,0,0,1,.972,4.178V61.132h7.193V59.4H211.1a4.539,4.539,0,0,1-2.289-.518c-.6-.345-.908-1.162-.908-2.461V47.31a10.274,10.274,0,0,1,.436-3.061A4.7,4.7,0,0,1,209.765,42a4.032,4.032,0,0,1,2.725-.854,3.731,3.731,0,0,1,3.378,1.489,7.668,7.668,0,0,1,.972,4.178V61.077h7.193V59.343H223.9a4.539,4.539,0,0,1-2.289-.518c-.6-.345-.908-1.162-.908-2.461V46.628q0-4.25-1.816-6.176a6.439,6.439,0,0,0-4.95-1.925,8.813,8.813,0,0,0-3.578.727,6.36,6.36,0,0,0-2.915,3.033h-.327a5.214,5.214,0,0,0-2.4-2.915,7.672,7.672,0,0,0-3.633-.845,7.965,7.965,0,0,0-3.451.727,6.568,6.568,0,0,0-2.788,3.033h-.145l-.536-3.351h-6.493V40.68h.118a4.761,4.761,0,0,1,2.28.49c.608.336.908,1.108.908,2.316V56.391c0,1.3-.291,2.116-.908,2.461a4.54,4.54,0,0,1-2.3.518h-.536V61.1Zm-28.662-5.994a4.84,4.84,0,0,1,1.344-3.7q1.345-1.263,4.859-1.435l2.652-.118v3.351a5.824,5.824,0,0,1-1.489,4.2,5.3,5.3,0,0,1-4.014,1.553c-2.234,0-3.351-1.29-3.351-3.851M174.955,61A6.108,6.108,0,0,0,176.9,59.6a24.664,24.664,0,0,0,1.7-2.043h.327l.663,3.551h5.585V59.37h-.127a2.635,2.635,0,0,1-1.98-.618,3.514,3.514,0,0,1-.581-2.361V45.684c0-2.625-.627-4.468-1.88-5.549s-3.151-1.607-5.685-1.607a16.381,16.381,0,0,0-3.751.391,6.237,6.237,0,0,0-2.725,1.281,2.934,2.934,0,0,0-.981,2.3,2.234,2.234,0,0,0,.908,2.007,4.7,4.7,0,0,0,2.625.6,9.092,9.092,0,0,1,.272-2.316,2.725,2.725,0,0,1,1.09-1.617,4.206,4.206,0,0,1,2.37-.581,4.029,4.029,0,0,1,2.525.663,3.109,3.109,0,0,1,1.081,1.816,12.483,12.483,0,0,1,.245,2.625v2.479l-3.433.118c-3.17.118-5.54.69-7.093,1.744a5.45,5.45,0,0,0-2.334,4.877c0,2.261.6,3.932,1.816,5a7.52,7.52,0,0,0,7.4,1.1m-24.03.1V59.379h-.127a5.445,5.445,0,0,1-2.37-.472c-.681-.318-1.017-1.081-1.017-2.3V47.873A8.658,8.658,0,0,1,148.609,43a4.241,4.241,0,0,1,3.787-1.816,3.965,3.965,0,0,1,3.533,1.489,7.342,7.342,0,0,1,1.017,4.178V61.114h7.193V59.379h-.118a4.542,4.542,0,0,1-2.3-.518c-.59-.345-.908-1.162-.908-2.461V46.628q0-4.25-1.88-6.176a7.267,7.267,0,0,0-5.449-1.925,6.3,6.3,0,0,0-6,3.76h-.209c.054-.745.091-1.39.127-1.943s0-1.072,0-1.571V29.691h-7.61v1.735h.336a5.364,5.364,0,0,1,2.37.5c.681.327,1.017,1.108,1.017,2.316v22.15c0,1.3-.336,2.116-.99,2.461a5.141,5.141,0,0,1-2.4.518h-.336V61.1Zm-17.2,0V59.379h-1.162a5.571,5.571,0,0,1-2.379-.472c-.672-.318-1.008-1.081-1.008-2.3V50.116a20.257,20.257,0,0,1,.2-2.725,17.919,17.919,0,0,1,.663-2.915,6.646,6.646,0,0,1,1.244-2.325,2.49,2.49,0,0,1,1.943-.908,1.88,1.88,0,0,1,1.7.772,4.693,4.693,0,0,1,.49,2.461,4.32,4.32,0,0,0,3.006-.8,2.779,2.779,0,0,0,.908-2.116,2.579,2.579,0,0,0-1.1-2.234,5.857,5.857,0,0,0-3.369-.781,5.581,5.581,0,0,0-2.852.618,4.833,4.833,0,0,0-1.653,1.635,17.893,17.893,0,0,0-1.162,2.252h-.209l-.781-4.1h-6.357V40.68h.127a5.454,5.454,0,0,1,2.379.49c.672.336,1.017,1.108,1.017,2.316V56.391c0,1.3-.336,2.116-1,2.461a5.141,5.141,0,0,1-2.4.518h-.127V61.1ZM109.957,60.8a6.475,6.475,0,0,0,3.015-3.051h.209l.536,3.351H120.3V59.37h-.127a5.541,5.541,0,0,1-2.379-.472c-.681-.318-1.017-1.081-1.017-2.3V38.936h-7.438V40.68h.127a5.255,5.255,0,0,1,2.4.509c.663.354.99,1.172.99,2.47v8.519a8.567,8.567,0,0,1-1.235,4.859,4.452,4.452,0,0,1-3.978,1.816c-1.68,0-2.824-.49-3.433-1.48a8.165,8.165,0,0,1-.908-4.178V38.936H95.9V40.68h.127a5.359,5.359,0,0,1,2.37.49c.681.336,1.017,1.108,1.017,2.316v9.926q0,4.26,1.816,6.185a6.54,6.54,0,0,0,5.049,1.925,9.376,9.376,0,0,0,3.714-.727M75.4,33.687h3.633c3.251,0,5.7,1.09,7.338,3.269s2.461,5.313,2.461,9.39-.817,7.265-2.461,9.409a8.757,8.757,0,0,1-7.383,3.288H75.355ZM79.942,61.15a14.118,14.118,0,0,0,7.465-1.816A11.288,11.288,0,0,0,91.948,54.2a18.76,18.76,0,0,0,1.517-7.856q0-7.029-3.56-10.9t-9.926-3.842H67.3v1.735h.536a5.3,5.3,0,0,1,2.379.5q1.008.49,1.008,2.316V56.391c0,1.3-.327,2.116-.99,2.461a5.141,5.141,0,0,1-2.4.518H67.3V61.1Z" transform="translate(-6.18 -2.726)"/>
    <path id="Path_109" data-name="Path 109" d="M59.584,25.867A93.933,93.933,0,0,0,58.622,5.4,4.014,4.014,0,0,0,55.37,2.072,99.407,99.407,0,0,0,34.673,0,188.569,188.569,0,0,0,33.42,22.125v3.533l.826.082c.4,0,.554.254.608.654s.109.908.109.908,14.958-.109,24.621-1.435" transform="translate(-3.069 0)"/>
    <path id="Path_110" data-name="Path 110" d="M26.567,36.039l-.836-.109c-.4-.045-.563-.254-.608-.663s-.109-.908-.109-.908A162.2,162.2,0,0,0,1.22,35.73c1.3,7.474,9.845,24.375,23.612,31.6.681-5.594,1.753-19.244,1.753-28.008V35.985Z" transform="translate(-0.112 -3.153)"/>
    <path id="Path_111" data-name="Path 111" d="M35.011,34.42a163.066,163.066,0,0,1,23.858,1.371c-1.308,7.474-9.845,24.375-23.612,31.6C34.575,61.8,33.44,48.151,33.44,39.388V36.046l.8-.073c.391-.045.554-.254.608-.663s.1-.908.1-.908Z" transform="translate(-3.071 -3.159)"/>
    <path id="Path_112" data-name="Path 112" d="M15.127,17.76a.264.264,0,0,0,0,.236.691.691,0,0,0,.272-.091,1.724,1.724,0,0,0,.209-.163,4.055,4.055,0,0,0-.481.018" transform="translate(-1.387 -1.629)"/>
    <path id="Path_113" data-name="Path 113" d="M13.618,14.091.15,27.16A176.656,176.656,0,0,0,24.8,28.622h.127s.054-.445.1-.908.209-.618.608-.654l.836-.082Zm-1.172,3.842c-.064.218-.054.5.245.5a2.1,2.1,0,0,0,.727-.245v.082a2.453,2.453,0,0,1-1.035.463.281.281,0,0,1-.315-.242.292.292,0,0,1,0-.039c.036-.227.2-.3.381-.518m4.386,3.133c0,.236-.363.372-.427.481a.3.3,0,0,0-.082.136,1.068,1.068,0,0,1,0-.381.19.19,0,0,0-.209-.182.809.809,0,0,0-.381,1.078c.011.023.023.044.035.066a.623.623,0,0,1,.118-.472.328.328,0,0,0,.073-.218.786.786,0,0,1,.118.4c0,.309-.227.372-.127.608,0,.064.045.109.073.191a.915.915,0,0,1,0-.282c0-.073.136-.218.145-.272a.409.409,0,0,0,0-.182.588.588,0,0,1,.163.427.771.771,0,0,1-.136.436.929.929,0,0,0-.073.245c-.064.509-.318.754-.645.754a.909.909,0,0,1-.4-.091c0,.654-.754.608-.754,1.035a.566.566,0,0,0,.163.345,3.043,3.043,0,0,1,.5.336.638.638,0,0,0-.436.173c.272.136.263.291.3.49-.263-.127-.391-.054-.454,0s0,.2-.136.327a.22.22,0,0,0-.227-.191.619.619,0,0,0-.354.272.246.246,0,0,1-.216.272.267.267,0,0,1-.038,0,.345.345,0,0,0-.091.318c-.1-.1-.118-.163-.082-.345-.118,0-.1-.154-.064-.236-.073.064-.136.145-.3.064a.308.308,0,0,0-.154.236c0-.272,0-.363.091-.4a.219.219,0,0,1,.118-.245v-.054a.226.226,0,0,1-.2-.091.3.3,0,0,0-.227.145.41.41,0,0,1,.109-.363c.1-.209.291-.245.409-.127a.639.639,0,0,0,.381.136.473.473,0,0,0,.336-.182.359.359,0,0,0,.064-.1c0-.082.1-.173-.064-.381s-.445-.472-.454-.69a.906.906,0,0,1,.327-.727H13.5c-.236,0-.254-.145-.49-.145a.309.309,0,0,0-.282.327.459.459,0,0,0,.082.282.484.484,0,0,1,.082.345.373.373,0,0,0-.5-.054.48.48,0,0,1-.209.327.336.336,0,0,0-.572-.127.216.216,0,0,1-.236.2h-.154a.578.578,0,0,0-.163.236.4.4,0,0,1,.064-.327c0-.064,0-.218.073-.263a.273.273,0,0,1-.381,0c-.073,0-.136.054-.209.2a.52.52,0,0,1,.154-.363c0-.109.154-.209.318-.173v-.054h0a.192.192,0,0,1-.191-.218.244.244,0,0,0-.236.064.337.337,0,0,1,.3-.218c0-.073.145-.082.209-.082a.191.191,0,0,1,.2.127.682.682,0,0,0,.608.263.227.227,0,0,0,.227-.227v-.009c0-.145-.236-.563-.236-.754a.762.762,0,0,1,.563-.545,2.181,2.181,0,0,1,1.008.282c.227,0,.254,0,.282-.073-.327-.409-.527-.4-.845-.608a.691.691,0,0,1-.263-.463c-.191.045-.372.3-.463.463a.244.244,0,0,0-.191-.127c-.154,0-.263.2-.336.372a.418.418,0,0,0-.391-.372c-.127,0-.272,0-.309.127a.29.29,0,0,1-.336.163c-.073,0-.127.064-.173.272a.626.626,0,0,1,0-.372.254.254,0,0,1,.064-.272c-.1,0-.254,0-.291-.064s-.154,0-.245.154a.416.416,0,0,1,.218-.345.29.29,0,0,1,.272-.136v-.045a.236.236,0,0,1-.118-.227c-.082-.1-.182,0-.254,0,.136-.145.3-.2.4-.136s.318,0,.345.163.254.173.5.173c.536,0,1.38-.5,1.317-.908a.792.792,0,0,0-.236,0c-.291,0-.645.354-.908.363.136-.163,0-.318.127-.436a2.855,2.855,0,0,1-.608.064.508.508,0,0,0,.173-.336c0-.073,0-.218-.318-.218a.676.676,0,0,1-.182,0c-.073,0-.282,0-.282-.182a.3.3,0,0,0-.291.091.538.538,0,0,1,.3-.272.191.191,0,0,1,.173-.118v-.064c0-.064-.245-.054-.245-.227s-.127-.091-.291-.045c.209-.154.282-.127.354-.109a.245.245,0,0,1,.327,0,.3.3,0,0,1,0-.272c0-.118-.064-.154-.173-.182a.461.461,0,0,1,.409.145.254.254,0,0,1,.218.218c0,.218-.227.372.218.608a5.669,5.669,0,0,0,.536.2,3.886,3.886,0,0,0,.545.145c-.073-.118,0-.245-.173-.363a1.869,1.869,0,0,1,.454.064c0-.173,0-.173-.1-.282h.318c.509.054.518-.2.618-.527a1.511,1.511,0,0,0-.745.236,1.19,1.19,0,0,0,0-.254.173.173,0,0,1,.163-.182h.183c.109,0,.263-.127.191-.381s-.127-.191-.227-.163l-.209.064a.2.2,0,0,0-.118.191l-.064-.182-.064-.136V18.06a.181.181,0,0,1,.091-.241.2.2,0,0,1,.045-.014l.327-.082c.182-.054.236-.118.272-.218s.064-.136.227-.136h.427c.254,0,.527-.2.436-.418.173,0,.245.309.2.418a1.1,1.1,0,0,0,.418-.109.729.729,0,0,1-.254.481.8.8,0,0,0,.436-.073,1.109,1.109,0,0,1-.291.49.716.716,0,0,1,.49.49c-.182-.073-.282,0-.436,0a4.567,4.567,0,0,1,.49.89,3.1,3.1,0,0,0-.391-.191c.136.309-.054.608,0,.772A.724.724,0,0,1,15,19.912a1.2,1.2,0,0,0-.118.681,1.464,1.464,0,0,0-.282-.2,1,1,0,0,0-.191.717,3.218,3.218,0,0,0,.4,1.39,2.585,2.585,0,0,1,.263.754.463.463,0,0,0,.445.391.426.426,0,0,0,.391-.436c0-.427-.527-.7-.527-1.462,0-.5.391-.745.4-1.063s-.254-.109-.445-.236c.245,0,.391-.318.608-.309s.245.118.254.218a.649.649,0,0,1-.109.345.909.909,0,0,0,.318-.608c0-.209-.3-.445-.227-.854v-.082c.082.454.736.572.736,1.026s-.372.354-.581.645c.236-.064.5-.018.5.236" transform="translate(-0.014 -1.294)"/>
    <path id="Path_114" data-name="Path 114" d="M25.22,0A103.363,103.363,0,0,0,4.514,2.072,3.986,3.986,0,0,0,1.308,5.4,86.941,86.941,0,0,0,.045,23.232C1.38,21.961,13.668,10,13.668,10L26.473,22.787A200.843,200.843,0,0,0,25.22,0M6.148,4.133c-.054.218-.054.5.254.5a2.3,2.3,0,0,0,.745-.245v.082a2.6,2.6,0,0,1-1.053.472c-.245,0-.336-.145-.336-.291s.227-.3.409-.518Zm4.477,3.215c0,.236-.354.372-.427.481s-.073.082-.082.145V7.584c0-.109-.091-.182-.218-.182a.874.874,0,0,0-.391,1.19.671.671,0,0,1,.127-.481.345.345,0,0,0,.073-.218.709.709,0,0,1,.118.409c0,.309-.227.381-.118.608a1.419,1.419,0,0,0,.073.2,1.216,1.216,0,0,1,0-.282,2.565,2.565,0,0,1,.154-.282.341.341,0,0,0,0-.191.6.6,0,0,1,.173.445.908.908,0,0,1-.136.436.7.7,0,0,0-.073.245c-.073.527-.327.772-.663.772a.971.971,0,0,1-.436-.182c0,.663-.763.608-.763,1.053a.565.565,0,0,0,.163.345c.082.082.391.2.509.345A.683.683,0,0,0,8.264,12c.282.136.272.291.309.5-.272-.136-.4-.054-.463,0s-.045.2-.136.336a.227.227,0,0,0-.227-.2.584.584,0,0,0-.363.272.254.254,0,0,1-.225.281.268.268,0,0,1-.038,0,.345.345,0,0,0-.091.318c-.1-.1-.118-.163-.082-.345-.118-.054-.109-.154-.073-.245a.218.218,0,0,1-.3.064.307.307,0,0,0-.154.245c0-.282,0-.372.091-.409a.2.2,0,0,1,.118-.245.273.273,0,0,0,0-.054.209.209,0,0,1-.2-.1.264.264,0,0,0-.236.154.428.428,0,0,1,.218-.354c.1-.2.3-.236.418-.118a.614.614,0,0,0,.381.136.518.518,0,0,0,.345-.182.469.469,0,0,0,.064-.109c0-.082.1-.173-.064-.381s-.454-.481-.463-.708a.907.907,0,0,1,.336-.745H7.293c-.236,0-.254-.145-.5-.145a.318.318,0,0,0-.282.336.433.433,0,0,0,.082.282.519.519,0,0,1,.082.354.363.363,0,0,0-.5,0,.556.556,0,0,1-.218.327.345.345,0,0,0-.581-.127.219.219,0,0,1-.245.2H4.977a.557.557,0,0,0-.163.245.4.4,0,0,1,.064-.336c0-.064,0-.227.073-.272a.281.281,0,0,1-.391,0c-.064,0-.136.064-.209.209a.489.489,0,0,1,.154-.372c0-.118.163-.209.318-.182s0,0,0-.054-.2,0-.182-.227a.29.29,0,0,0-.254.073.364.364,0,0,1,.309-.227c0-.073.154-.082.218-.082a.192.192,0,0,1,.163-.036.69.69,0,0,0,.627.263.228.228,0,0,0,.228-.226v-.019c0-.145-.245-.563-.245-.754a.78.78,0,0,1,.581-.563,2.023,2.023,0,0,1,1.026.291c.118,0,.254,0,.291-.082-.336-.409-.554-.4-.908-.618A.691.691,0,0,1,6.412,7.9c-.191.045-.381.309-.481.472a.218.218,0,0,0-.191-.136c-.154,0-.263.209-.345.381-.045-.2-.163-.381-.391-.381a.355.355,0,0,0-.309.136.29.29,0,0,1-.345.154.354.354,0,0,0-.182.282.671.671,0,0,1,0-.381.263.263,0,0,1,.073-.272c-.109,0-.254,0-.3-.064s-.154,0-.254.154A.418.418,0,0,1,3.914,7.9c0-.1.173-.136.282-.136s0,0,0-.054a.236.236,0,0,1-.109-.236c-.091-.1-.182,0-.263,0,.136-.136.3-.191.409-.127.236-.082.327,0,.345.163s.263.173.518.173c.536,0,1.4-.5,1.335-.908a.619.619,0,0,0-.245,0c-.291,0-.645.354-.908.363.145-.163.054-.327.136-.445a2.883,2.883,0,0,1-.618.073.542.542,0,0,0,.173-.345c0-.073,0-.227-.318-.227a.837.837,0,0,1-.191,0c-.073,0-.282,0-.282-.182a.318.318,0,0,0-.3.091.555.555,0,0,1,.309-.272A.226.226,0,0,1,4.359,5.7V5.65c0-.054-.254-.054-.245-.236s-.127-.091-.3,0c.209-.163.291-.136.354-.109a.237.237,0,0,1,.334,0l0,0V5.259a.319.319,0,0,1,0-.282c0-.127-.054-.163-.173-.191a.481.481,0,0,1,.409.154.255.255,0,0,1,.227.218c0,.227-.236.381.227.618a3.566,3.566,0,0,0,.545.209,3.883,3.883,0,0,0,.554.145c-.082-.118,0-.245-.173-.372a1.88,1.88,0,0,1,.454.073c0-.182,0-.182-.1-.291h.318c.527.054.536-.209.636-.536a1.494,1.494,0,0,0-.763.245.854.854,0,0,0,0-.263.173.173,0,0,1,.163-.182h.183c.109,0,.272-.127.2-.381a.2.2,0,0,0-.23-.164H6.975a1.678,1.678,0,0,0-.209.064c-.091,0-.118.1-.127.191,0-.045,0-.154-.064-.191A.631.631,0,0,1,6.521,4.2V4.133a.182.182,0,0,1,.092-.24.188.188,0,0,1,.054-.015L6.993,3.8a.355.355,0,0,0,.272-.218c.045-.1.073-.145.236-.145h.327c.254,0,.536-.209.445-.427.173,0,.245.318.2.427a1.1,1.1,0,0,0,.418-.109.647.647,0,0,1-.254.481.766.766,0,0,0,.445-.064,1.249,1.249,0,0,1-.291.5.709.709,0,0,1,.49.5c-.182-.082-.282,0-.436,0a4.653,4.653,0,0,1,.527,1.081,3.879,3.879,0,0,0-.391-.191c.136.318-.064.627,0,.79A.836.836,0,0,1,8.709,6.2a1.319,1.319,0,0,0-.118.69,2.106,2.106,0,0,0-.282-.2,1,1,0,0,0-.2.727,3.263,3.263,0,0,0,.409,1.417,2.642,2.642,0,0,1,.263.772A.473.473,0,0,0,9.236,10a.427.427,0,0,0,.4-.436c0-.436-.536-.717-.536-1.489,0-.509.391-.763.4-1.081s-.245-.109-.445-.236c.254-.054.4-.327.627-.318a.217.217,0,0,1,.243.189c0,.01,0,.019,0,.029a.676.676,0,0,1-.1.354.907.907,0,0,0,.309-.618c0-.218-.3-.463-.218-.908a.247.247,0,0,1,0-.082c.091.463.754.581.754,1.044s-.372.354-.59.663c.282-.1.545-.054.545.236M18.7,3.27c-.064.227-.064.518.263.518a2.391,2.391,0,0,0,.772-.254v.082a2.726,2.726,0,0,1-1.1.49.291.291,0,0,1-.341-.231.353.353,0,0,1,0-.069c.073-.236.254-.318.409-.536m4.65,3.315c0,.245-.381.391-.454.509a.391.391,0,0,0-.082.145,1.025,1.025,0,0,1,0-.409c0-.118-.091-.191-.227-.191a.908.908,0,0,0-.414,1.216c0,.009.009.019.015.028a.692.692,0,0,1,.118-.5.316.316,0,0,0,.082-.227.783.783,0,0,1,.127.427c0,.327-.236.391-.127.636a1.894,1.894,0,0,0,.073.209.922.922,0,0,1,0-.3c0-.082.145-.227.154-.291a.356.356,0,0,0,0-.2.643.643,0,0,1,.173.463.912.912,0,0,1-.136.454.815.815,0,0,0-.082.263c-.073.545-.336.8-.69.8a.909.909,0,0,1-.527-.127c0,.7-.79.645-.79,1.1a.606.606,0,0,0,.163.363c.091.082.409.2.527.363a.643.643,0,0,0-.454.182c.282.145.272.309.309.518-.282-.136-.409-.054-.481,0s0,.209-.136.354a.24.24,0,0,0-.245-.209.616.616,0,0,0-.372.291.272.272,0,0,1-.253.29H19.6a.336.336,0,0,0-.091.336c-.109-.109-.127-.173-.091-.363-.127-.054-.109-.163-.073-.263a.245.245,0,0,1-.318.064.362.362,0,0,0-.163.254c0-.291,0-.391.1-.427a.208.208,0,0,1,.127-.254.126.126,0,0,0,0-.064.236.236,0,0,1-.209-.1.344.344,0,0,0-.245.163.427.427,0,0,1,.227-.363c.109-.218.318-.254.436-.127a.67.67,0,0,0,.4.136.51.51,0,0,0,.363-.191.469.469,0,0,0,.064-.109c0-.082.109-.182-.064-.4s-.472-.5-.481-.736a.907.907,0,0,1,.345-.772h-.136c-.245,0-.272-.154-.527-.154a.327.327,0,0,0-.291.345.475.475,0,0,0,.082.3.452.452,0,0,1,.082.363.381.381,0,0,0-.518,0,.571.571,0,0,1-.227.345.354.354,0,0,0-.608-.136.225.225,0,0,1-.245.209c-.191,0-.109,0-.163-.045a.493.493,0,0,0-.173.254.419.419,0,0,1,.073-.354c0-.064,0-.236.073-.282v-.045a.281.281,0,0,1-.4,0l0,0c-.073,0-.145.064-.218.218a.508.508,0,0,1,.154-.472c0-.118.163-.218.327-.182V9.827h0a.2.2,0,0,1-.2-.236.237.237,0,0,0-.254.073.354.354,0,0,1,.318-.236c0-.073.154-.082.218-.082a.21.21,0,0,1,.218.127.708.708,0,0,0,.645.282A.245.245,0,0,0,18.4,9.51V9.5c0-.154-.263-.59-.263-.79a.817.817,0,0,1,.608-.59,2.2,2.2,0,0,1,1.063.309.47.47,0,0,0,.3-.082c-.345-.427-.563-.418-.908-.645a.729.729,0,0,1-.272-.49c-.209.045-.409.318-.5.49a.236.236,0,0,0-.2-.136c-.163,0-.282.218-.363.4a.405.405,0,0,0-.409-.4.345.345,0,0,0-.318.145.326.326,0,0,1-.363.163c-.073,0-.136.064-.191.282a.7.7,0,0,1,0-.391.292.292,0,0,1,.064-.291c-.109,0-.263,0-.309-.064s-.154,0-.263.163a.462.462,0,0,1,.236-.363c0-.1.182-.145.291-.145V7.012a.227.227,0,0,1-.118-.236c-.091-.109-.191-.045-.272,0,.145-.154.309-.209.427-.145.245-.082.336,0,.354.173s.282.182.536.182c.563,0,1.462-.527,1.4-.908a.665.665,0,0,0-.254,0c-.3,0-.681.381-.972.381.145-.163.054-.336.136-.454a4.147,4.147,0,0,1-.645.064.535.535,0,0,0,.182-.354c0-.082,0-.227-.336-.227a.837.837,0,0,1-.191,0c-.082,0-.3,0-.3-.2a.363.363,0,0,0-.309.1.574.574,0,0,1,.318-.291.236.236,0,0,1,.191-.127c0-.021,0-.043,0-.064a.226.226,0,0,1-.254-.245c.009-.191-.136-.091-.318,0,.227-.163.309-.136.381-.109a.246.246,0,0,1,.345,0V4.5a.283.283,0,0,1,0-.282c0-.136-.064-.173-.191-.2a.508.508,0,0,1,.436.154.29.29,0,0,1,.236.236c0,.227-.245.391.227.636a4.441,4.441,0,0,0,.572.218,3.481,3.481,0,0,0,.572.154c-.082-.127,0-.254-.182-.391a2.057,2.057,0,0,1,.481.073c0-.182,0-.182-.109-.3h.336c.545.054.554-.209.663-.554a1.577,1.577,0,0,0-.8.254.913.913,0,0,0,0-.272.182.182,0,0,1,.172-.191h.192c.118,0,.282-.136.209-.4a.189.189,0,0,0-.245-.173c-.109.036-.1,0-.218.064a.217.217,0,0,0-.136.2,1.543,1.543,0,0,0-.064-.191l-.064-.145V3.334a.191.191,0,0,1,.088-.255.208.208,0,0,1,.057-.017l.345-.082c.191-.054.245-.127.282-.227s.073-.145.245-.145h.509c.263,0,.554-.209.454-.445.191,0,.263.327.218.445a1.19,1.19,0,0,0,.436-.109.653.653,0,0,1-.272.5.812.812,0,0,0,.463-.064,1.2,1.2,0,0,1-.3.509.764.764,0,0,1,.509.527c-.182-.082-.291,0-.454,0A4.943,4.943,0,0,1,22.123,5.1a2.466,2.466,0,0,0-.409-.2c.145.327-.064.645,0,.817a.9.9,0,0,1-.282-.218,1.289,1.289,0,0,0-.127.717,1.857,1.857,0,0,0-.3-.218,1.1,1.1,0,0,0-.2.763,3.293,3.293,0,0,0,.427,1.471,3,3,0,0,1,.272.808.49.49,0,0,0,.472.409A.445.445,0,0,0,22.4,9c0-.463-.554-.754-.554-1.553,0-.527.4-.79.418-1.126S22,6.2,21.787,6.068c.263,0,.418-.336.654-.327s.245.127.254.227a.764.764,0,0,1-.1.372,1.039,1.039,0,0,0,.327-.645c0-.227-.318-.481-.236-.908a.505.505,0,0,1,0-.091c.1.49.79.618.79,1.1s-.391.363-.618.681c.245-.209.527-.163.527.109Z" transform="translate(0 0)"/>
    <path id="Path_115" data-name="Path 115" d="M8.257,3.98a.269.269,0,0,0,0,.236.771.771,0,0,0,.282-.091c.082-.054.109-.1.209-.163a2.273,2.273,0,0,0-.49.018" transform="translate(-0.756 -0.363)"/>
    <path id="Path_116" data-name="Path 116" d="M22.157,3a.31.31,0,0,0,0,.254,1.135,1.135,0,0,0,.291-.1c.091-.054.118-.1.218-.173A2.441,2.441,0,0,0,22.157,3" transform="translate(-2.032 -0.273)"/>
  </g>
</svg>
