<?xml version="1.0" encoding="utf-8"?>
<!-- Generator: Adobe Illustrator 26.0.3, SVG Export Plug-In . SVG Version: 6.00 Build 0)  -->
<svg version="1.1" id="Layer_1" xmlns="http://www.w3.org/2000/svg" xmlns:xlink="http://www.w3.org/1999/xlink" x="0px" y="0px"
	 viewBox="0 0 89.7 73.7" style="enable-background:new 0 0 89.7 73.7;" xml:space="preserve">
<g>
	<path id="Epigeum" d="M0,36.9c0.1,6.9,5.7,12.4,12.5,12.3c4.9,0,9.3-3,11.3-7.5c0.2-0.4,0-0.8-0.4-1c-0.3-0.2-0.7,0-0.9,0.3v0.1
		c-2.4,5.4-8.8,7.9-14.2,5.5c-5.4-2.4-7.9-8.8-5.5-14.2s8.8-7.9,14.2-5.5c2.5,1.1,4.5,3.2,5.6,5.7c0.2,0.4,0.6,0.5,0.9,0.3
		c0,0,0,0,0.1,0c0.3-0.2,0.5-0.5,0.4-0.9c-2.7-6.3-10-9.2-16.3-6.5C3.1,27.5,0.1,31.9,0,36.9 M29.3,37.1c0-0.6,0.1-1.3,0.3-1.9
		c0.2-0.5,0.5-0.9,0.8-1.3c0.3-0.3,0.8-0.6,1.2-0.8c0.4-0.2,0.9-0.3,1.4-0.3c1-0.1,1.9,0.3,2.5,1.1c0.6,0.9,1,2,0.9,3.1v0.5h-5.5
		c0,0.7,0.3,1.4,0.7,1.9c0.6,0.5,1.3,0.7,2,0.7c0.4,0,0.9,0,1.3-0.1c0.3-0.1,0.6-0.2,0.8-0.3l0.2,1.2L35,41.2
		c-0.5,0.1-1,0.2-1.5,0.2c-0.6,0-1.2-0.1-1.8-0.3c-0.5-0.2-0.9-0.5-1.3-0.9c-0.3-0.4-0.6-0.8-0.7-1.3C29.4,38.4,29.3,37.8,29.3,37.1
		z M35,36.3c0-0.6-0.1-1.1-0.5-1.6c-0.3-0.4-0.9-0.6-1.4-0.6c-0.3,0-0.6,0.1-0.9,0.2c-0.2,0.1-0.4,0.3-0.6,0.5
		c-0.2,0.2-0.3,0.4-0.4,0.7c-0.1,0.3-0.2,0.5-0.2,0.8L35,36.3z M45.5,37.1c0,0.6-0.1,1.1-0.2,1.7c-0.1,0.5-0.4,0.9-0.7,1.3
		c-0.3,0.4-0.7,0.7-1.1,0.9c-0.9,0.4-1.9,0.4-2.8,0.1c-0.3-0.1-0.6-0.2-0.8-0.4v3.2h-1.4V33.3c0.4-0.1,0.9-0.2,1.3-0.3
		c0.6-0.1,1.2-0.2,1.8-0.1c0.6,0,1.2,0.1,1.7,0.3c0.5,0.2,0.9,0.5,1.3,0.8c0.4,0.4,0.6,0.8,0.8,1.3C45.4,35.9,45.5,36.5,45.5,37.1
		L45.5,37.1z M44.1,37.1c0.1-0.8-0.2-1.6-0.7-2.2c-0.5-0.5-1.2-0.8-1.9-0.8h-1c-0.2,0-0.4,0.1-0.6,0.1v5.1c0.2,0.2,0.5,0.3,0.8,0.4
		c0.4,0.1,0.7,0.2,1.1,0.2c0.4,0,0.7-0.1,1.1-0.2c0.3-0.1,0.5-0.4,0.7-0.6c0.2-0.3,0.3-0.6,0.4-0.9C44.1,37.9,44.2,37.5,44.1,37.1
		L44.1,37.1z M48.4,31.6c-0.6,0-1-0.4-1-1l0,0c0-0.3,0.1-0.5,0.3-0.7c0.4-0.4,1-0.4,1.4,0c0.4,0.4,0.4,1,0,1.4
		C48.9,31.5,48.7,31.6,48.4,31.6z M49.1,41.2h-1.4v-8.1h1.4V41.2z M56.9,40.4c-0.2,0.1-0.5,0.2-0.7,0.3c-0.4,0.1-0.8,0.2-1.2,0.2
		c-0.5,0-0.9-0.1-1.4-0.2c-0.4-0.1-0.8-0.4-1.1-0.7c-0.3-0.4-0.6-0.8-0.8-1.2c-0.4-1.1-0.4-2.3,0-3.4c0.2-0.5,0.4-0.9,0.8-1.3
		c0.3-0.4,0.7-0.6,1.2-0.8c0.5-0.2,1.1-0.3,1.6-0.3c0.6,0,1.2,0,1.8,0.1c0.5,0.1,0.9,0.2,1.3,0.3v7.2c0.1,1-0.3,2-1,2.7
		c-0.8,0.6-1.9,0.9-2.9,0.8c-0.5,0-0.9,0-1.4-0.1l-1.2-0.3l0.3-1.3c0.3,0.1,0.7,0.2,1.1,0.3c0.4,0.1,0.9,0.1,1.3,0.1
		c0.7,0.1,1.4-0.1,1.9-0.5c0.4-0.4,0.6-1,0.6-1.6L56.9,40.4z M56.9,34.4c-0.2-0.1-0.4-0.1-0.6-0.1c-0.3,0-0.7-0.1-1-0.1
		c-0.7,0-1.4,0.3-1.8,0.8c-0.4,0.6-0.6,1.3-0.6,2c0,0.4,0.1,0.8,0.2,1.2c0.1,0.3,0.3,0.6,0.5,0.8c0.2,0.2,0.4,0.4,0.7,0.5
		c0.3,0.1,0.5,0.2,0.8,0.2c0.4,0,0.7-0.1,1.1-0.2c0.3-0.1,0.6-0.2,0.8-0.4L56.9,34.4z M60.4,37.1c0-0.6,0.1-1.3,0.3-1.9
		c0.2-0.5,0.5-0.9,0.8-1.3c0.3-0.3,0.8-0.6,1.2-0.8c0.4-0.2,0.9-0.3,1.4-0.3c0.9-0.1,1.9,0.3,2.5,1c0.6,0.9,1,2,0.9,3.1v0.5H62
		c0,0.7,0.3,1.4,0.7,1.9c0.6,0.5,1.3,0.7,2,0.7c0.4,0,0.9,0,1.3-0.1c0.3-0.1,0.6-0.2,0.8-0.3l0.2,1.2l-0.9,0.3
		c-0.5,0.1-1,0.2-1.5,0.2c-0.6,0-1.2-0.1-1.8-0.3c-0.5-0.2-1-0.5-1.3-0.9c-0.3-0.4-0.6-0.8-0.7-1.3C60.5,38.3,60.4,37.7,60.4,37.1z
		 M65.9,36.3c0-0.6-0.1-1.1-0.5-1.6c-0.3-0.4-0.9-0.6-1.4-0.6c-0.3,0-0.6,0.1-0.9,0.2c-0.2,0.1-0.4,0.3-0.6,0.5
		c-0.2,0.2-0.3,0.4-0.4,0.7c-0.1,0.3-0.2,0.5-0.2,0.8L65.9,36.3z M76,40.9c-0.4,0.1-0.9,0.2-1.3,0.3c-0.6,0.1-1.3,0.1-1.9,0.1
		c-0.5,0-1-0.1-1.5-0.3c-0.4-0.2-0.7-0.5-1-0.8c-0.3-0.3-0.5-0.7-0.6-1.2c-0.1-0.5-0.2-1-0.2-1.5v-4.4h1.4v4.1
		c-0.1,0.7,0.1,1.5,0.5,2.1c0.4,0.5,1,0.7,1.6,0.6h1.3c0.1,0,0.2,0,0.2-0.1v-6.7h1.4v7.8H76z M78.8,33.3c0.4-0.1,0.9-0.2,1.3-0.3
		c0.6-0.1,1.3-0.1,1.9-0.1c0.4,0,0.9,0.1,1.3,0.2c0.3,0.1,0.7,0.3,0.9,0.6l0.3-0.2l0.6-0.3c0.2-0.1,0.5-0.2,0.8-0.2
		c0.3-0.1,0.6-0.1,0.9-0.1c0.5,0,1,0.1,1.5,0.3c0.4,0.2,0.7,0.4,0.9,0.8c0.2,0.4,0.4,0.8,0.4,1.2c0.1,0.5,0.1,1,0.1,1.5v4.5h-1.4V37
		c0-0.4,0-0.8-0.1-1.2c0-0.3-0.1-0.6-0.3-0.9c-0.1-0.2-0.3-0.4-0.5-0.5c-0.3-0.1-0.6-0.2-0.9-0.2c-0.4,0-0.8,0.1-1.2,0.2
		c-0.2,0.1-0.4,0.2-0.6,0.3c0.1,0.3,0.2,0.6,0.2,0.9c0,0.3,0.1,0.7,0.1,1v4.5h-1.4v-4.2c0-0.4,0-0.8-0.1-1.2c0-0.3-0.1-0.6-0.3-0.9
		c-0.1-0.2-0.3-0.4-0.5-0.5c-0.3-0.1-0.5-0.2-0.8-0.2H81l-0.4,0.1h-0.2v6.9h-1.6L78.8,33.3z"/>
</g>
</svg>
