<?xml version="1.0" encoding="utf-8"?>
<!-- Generator: Adobe Illustrator 26.0.3, SVG Export Plug-In . SVG Version: 6.00 Build 0)  -->
<svg version="1.1" id="Layer_1" xmlns="http://www.w3.org/2000/svg" xmlns:xlink="http://www.w3.org/1999/xlink" x="0px" y="0px"
	 viewBox="0 0 75.5 34.6" style="enable-background:new 0 0 75.5 34.6;" xml:space="preserve">
<style type="text/css">
	.st0 {
      fill: #101010;
    }
    @media (prefers-color-scheme: dark) {
      .st0 {
          fill: #ffffff;
      }
    }
</style>
<g>
	<g id="Group_61">
		<path id="Path_39" class="st0" d="M60.4,9.6h-5.1V16h5c2.5,0,3.8-1.3,3.8-3.2C64.1,11,62.9,9.6,60.4,9.6"/>
		<path id="Path_40" class="st0" d="M69.6,0H29.5c-3.2,0-5.9,2.6-5.9,5.9v22.8c0,3.2,2.6,5.9,5.9,5.9h40.1c3.2,0,5.9-2.6,5.9-5.9
			V5.9C75.5,2.6,72.9,0,69.6,0 M41.1,28.9h-4.2l-7.8-23H34l4.1,13.3c0.5,1.5,1,3.7,1,3.7h0.1c0,0,0.5-2.2,1-3.7l4-13.3h4.7
			L41.1,28.9z M63.2,21.9c-0.6-1.5-2-2.3-4.1-2.3h-3.8v9.2h-4.7v-23h10.6c4.4,0,7.4,2.6,7.4,6.4c0.2,2.7-1.6,5-4.2,5.6v0.1
			c2.1,0.6,3.2,1.8,3.5,4.6c0.3,3.3,0.2,5.7,1,6.1v0.2h-4.5c-0.6-0.3-0.6-2.8-0.8-5.3C63.5,22.9,63.4,22.4,63.2,21.9"/>
		<path id="Path_41" class="st0" d="M0,5.8h10.3c2-0.1,4,0.5,5.6,1.7c1.2,1.1,1.9,2.7,1.8,4.3c0,2.4-1.4,3.9-3.6,4.6v0.1
			c2.6,0.7,4.3,3,4.3,5.7c0.1,1.8-0.6,3.6-2,4.8c-1.6,1.3-3.7,1.9-5.8,1.8H0V5.8z M9.7,15c2,0,3.4-1,3.4-2.8c0-1.7-1.3-2.7-3.3-2.7
			H4.7V15H9.7z M4.7,24.9H10c2.3,0,3.6-1.3,3.6-3.1c0-2.2-1.6-3.3-3.7-3.3H4.7V24.9z"/>
	</g>
</g>
</svg>
