<svg xmlns="http://www.w3.org/2000/svg" xmlns:xlink="http://www.w3.org/1999/xlink" width="240.143" height="63" viewBox="0 0 240.143 63">
  <defs>
    <clipPath id="clip-path">
      <rect id="Rectangle_159" data-name="Rectangle 159" width="240.143" height="63.001" fill="none"/>
    </clipPath>
  </defs>
  <g id="Group_90" data-name="Group 90" clip-path="url(#clip-path)">
    <path id="Path_81" data-name="Path 81" d="M0,26.507V1.263H4.95V26.507H0M12.214,10.6h.07a7.1,7.1,0,0,1,5.547-2.56A5.9,5.9,0,0,1,22.99,10.6a9.142,9.142,0,0,1,5.83-2.56c3.962-.037,6.037,2.454,6.108,6.6V26.47H30.256V15.508c0-2.091-.7-4.255-3.016-4.255-2.247,0-3.65,1.369-3.65,4.505V26.506H18.919v-11c0-2.524-1.088-4.255-3.089-4.255-2.213,0-3.58,1.549-3.58,4.615V26.507H7.58V8.475h4.634V10.6m34.455.326c2.665,0,4,3.1,4,6.2,0,3.174-1.051,6.924-4.174,6.924-2.529,0-4.319-2.56-4.319-6.347,0-4.148,1.544-6.779,4.493-6.779M42.176,8.475H37.509V35.525h4.667V24.271a6.794,6.794,0,0,0,5.263,2.668c5.021,0,8.181-5.083,8.181-9.844,0-3.968-2.245-9.052-7.756-9.052a6.948,6.948,0,0,0-5.618,2.92h-.07Zm20.134,6.851c-.035-2.412,1.156-4.615,3.826-4.615,2.315,0,3.264,1.875,3.088,4.615Zm11.306,2.6c.347-5.372-1.935-9.881-7.41-9.881a8.655,8.655,0,0,0-8.951,9.089c0,5.952,3.965,9.807,9.267,9.807A13.6,13.6,0,0,0,73.4,24.92L72.067,22.4a8.6,8.6,0,0,1-4.7,1.444c-2.914,0-5.229-2.526-5.123-5.918ZM80.5,11.648h.07l.946-1.406c.562-.759,1.58-2.2,3.019-2.2A4.529,4.529,0,0,1,87.7,9.664l-1.755,3.32a4.16,4.16,0,0,0-2.212-.615c-1.614,0-3.2,1.335-3.2,5.229v8.908H75.864V8.475H80.5ZM93.859,26.508H89.192V8.475h4.667ZM88.736,3.068a2.786,2.786,0,0,1,2.7-2.777,2.907,2.907,0,1,1-2.7,2.777m17.8,12.981c.351,5.3-2.069,7.682-3.93,7.682-1.123,0-2.109-1.081-2.109-2.669,0-2.055,1.16-3.424,3.441-4.148l2.6-.864m-.069,7.825a5.9,5.9,0,0,0,.454,2.633h4.951a11.452,11.452,0,0,1-.738-4.4V14.752c0-5.627-3.965-6.709-7.2-6.709A9.791,9.791,0,0,0,97.2,10.5l1.509,2.272a6.657,6.657,0,0,1,4.638-1.839,3.191,3.191,0,0,1,3.192,2.7L102.4,14.894c-4.073,1.189-6.494,3.137-6.494,6.565,0,3.315,2.281,5.479,5.019,5.479,1.615,0,3.2-1.116,4.5-2.164l1.052-.9m7.581,2.633V0h4.666V26.508ZM149.527,5.842a11.542,11.542,0,0,0-5.093-1.406c-5.053,0-8.7,3.643-8.7,9.378,0,5.987,4.037,9.521,8.843,9.521a10.409,10.409,0,0,0,4.952-1.263L150.9,25.21a14.017,14.017,0,0,1-6.53,1.73c-8.533,0-13.9-5.77-13.9-13.2,0-6.889,5.337-12.912,13.97-12.912A13.276,13.276,0,0,1,151.07,2.78Z"/>
    <path id="Path_82" data-name="Path 82" d="M160.158,24.271c-3.336,0-4.247-3.822-4.247-7,0-2.993,1.051-6.564,4.247-6.564,3.264,0,4.282,3.571,4.282,6.564,0,3.174-.876,7-4.282,7m0,2.668c5.514,0,9.229-4.073,9.229-9.663a9.213,9.213,0,1,0-18.425,0c0,5.59,3.721,9.663,9.2,9.663m11.243-.432V0h4.671V26.508Zm7.613,0V0h4.667V26.508ZM190.68,15.326c-.04-2.412,1.154-4.615,3.822-4.615,2.319,0,3.265,1.875,3.091,4.615Zm11.3,2.6c.352-5.372-1.929-9.881-7.406-9.881a8.659,8.659,0,0,0-8.955,9.089c0,5.952,3.968,9.807,9.272,9.807a13.619,13.619,0,0,0,6.881-2.018L200.437,22.4a8.6,8.6,0,0,1-4.7,1.444c-2.912,0-5.232-2.526-5.125-5.918Zm26.824-2.6c-.034-2.412,1.158-4.615,3.827-4.615,2.315,0,3.266,1.875,3.09,4.615Zm11.3,2.6c.349-5.372-1.93-9.881-7.407-9.881a8.655,8.655,0,0,0-8.952,9.089c0,5.952,3.965,9.807,9.268,9.807a13.6,13.6,0,0,0,6.88-2.018L238.564,22.4a8.605,8.605,0,0,1-4.7,1.444c-2.915,0-5.228-2.526-5.125-5.918Zm-27.216-6.994c2.81,0,4.248,2.922,4.248,6.058,0,3.606-1.335,7.068-4.46,7.068-2.7,0-4.033-3.391-4.033-6.889s1.228-6.237,4.246-6.237m8.917-2.453h-4.67v2.2h-.069a6.165,6.165,0,0,0-5.232-2.633c-4.775,0-8.143,4.544-8.143,9.233,0,5.77,3.055,9.663,7.723,9.663a7.04,7.04,0,0,0,5.652-3.029h.069V26.29c0,4.183-2.386,6.131-5.477,6.131a11.112,11.112,0,0,1-6.106-1.551l-.915,2.956a16.391,16.391,0,0,0,7.372,1.7c5.232,0,9.8-2.634,9.8-10.64ZM0,37.328H4.986V59.179H15.479V62.57H0Zm42.872,9.338A8.7,8.7,0,0,1,49.19,44.1c4.322,0,6.392,2.309,6.392,6.852V62.569H50.89V51.5c0-2.522-1.146-4.181-3.7-4.181-2.4,0-4.286,1.548-4.286,4.505V62.569H38.217V44.54h4.656v2.126m24.859.327c2.957,0,4.471,2.922,4.471,6.056,0,3.609-1.4,7.068-4.693,7.068-2.843,0-4.247-3.389-4.247-6.888s1.294-6.236,4.469-6.236M72.2,62.57h4.693v-26.5H72.2V46.633h-.075a6.8,6.8,0,0,0-5.65-2.528c-4.953,0-8.425,4.545-8.425,9.233,0,5.769,3.213,9.662,8.054,9.662a7.546,7.546,0,0,0,6.021-3.029H72.2Zm16.885-2.238c-3.507,0-4.472-3.82-4.472-6.994,0-2.992,1.107-6.562,4.472-6.562,3.438,0,4.506,3.57,4.506,6.562,0,3.174-.921,6.994-4.506,6.994m0,2.669A9.282,9.282,0,0,0,98.8,53.338c0-5.839-4.727-9.233-9.715-9.233-4.951,0-9.68,3.394-9.68,9.233A9.274,9.274,0,0,0,89.086,63m16.921-16.334a8.7,8.7,0,0,1,6.316-2.562c4.323,0,6.393,2.309,6.393,6.852V62.569h-4.691V51.5c0-2.522-1.146-4.181-3.7-4.181-2.4,0-4.285,1.548-4.285,4.505V62.569h-4.692V44.54h4.655v2.126M25.871,60.332c-3.513,0-4.471-3.82-4.471-6.994,0-2.992,1.107-6.562,4.471-6.562,3.436,0,4.507,3.57,4.507,6.562,0,3.174-.926,6.994-4.507,6.994m0,2.669a9.283,9.283,0,0,0,9.716-9.662c0-5.839-4.729-9.233-9.716-9.233-4.952,0-9.68,3.394-9.68,9.233A9.273,9.273,0,0,0,25.871,63"/>
  </g>
</svg>
