<?xml version="1.0" encoding="utf-8"?>
<!-- Generator: Adobe Illustrator 26.0.3, SVG Export Plug-In . SVG Version: 6.00 Build 0)  -->
<svg version="1.1" id="Layer_1" xmlns="http://www.w3.org/2000/svg" xmlns:xlink="http://www.w3.org/1999/xlink" x="0px" y="0px"
	 viewBox="0 0 720 206" style="enable-background:new 0 0 720 206;" xml:space="preserve">
<g>
	<g>
		<g>
			<g>
				<path d="M225.7,83.2c-15-33.5-50-58.7-84.4-71.9C113.8,0.8,84-3.5,55.3,4.2C34.1,10,17.1,23.3,8.1,42.8
					C-6,73.4-0.6,108.5,16,137.9C15.2,63,60.9,33.9,60.9,33.9c13.7-9.5,20.9-11.8,27-3.7c7.9,11,12.5,25.1,15,39.7
					C80.4,63.2,66.6,86.4,79.8,107c7.3,10.5,16.3,17.6,24.8,22.2c-0.8,9.6-1.8,15.6-1.8,15.6c-4.9,24.5-49,22.6-64.7,22
					c0.7,0.8,1.4,1.7,2.2,2.6c10.5,10.1,22.5,18.5,35.4,24.3c14.5,6.5,34,12,50.1,12.1C192.6,206,255.9,150.7,225.7,83.2
					 M197.6,155.6c-1.4,6-4.4,10.6-17,11.1c-9.5,0-62.9,4.9-68.8-21.9c0,0-0.8-4.9-1.6-12.8c10.1,4.6,18.8,5.9,22.3,6.3
					c1.2,0.1,1.8-0.2,2.6-1c4.2-5.2,20.8-28.4,15.2-59.5c-4.5-20.2-24-28.1-36.6-17.4c2.7-11.1,6.9-21.6,13-30.1
					c6.1-8.1,13.3-5.8,27,3.7C153.7,33.9,206.5,67.6,197.6,155.6z"/>
				<polyline points="255.5,55.5 259.7,55.5 272.4,89.9 272.4,55.5 276.5,55.5 276.5,101.4 272.5,101.4 259.5,66 259.5,101.4 
					255.5,101.4 255.5,55.5 				"/>
				<path d="M281.4,91.4v-0.7c0-6.8,3.3-11.1,8.7-11.1c2.2,0,3.9,0.6,5.5,1.3v-3.7c0-4.5-2.1-7-6.2-7c-2.3,0-4.2,0.5-6.2,1.6v-3.9
					c2-1,4.1-1.5,6.7-1.5c6,0,9.7,3.7,9.7,10.5v24.5h-4.1v-4.6c-1.4,3.3-3.5,5.2-6.6,5.2C284.5,102,281.4,97.6,281.4,91.4
					 M295.6,91.1v-6.6c-1.5-0.7-3.2-1.2-4.8-1.2c-3.5,0-5.4,2.9-5.4,7.3v0.7c0,4.3,1.7,7.3,4.7,7.3C293.4,98.5,295.6,95,295.6,91.1z
					"/>
				<path d="M306.6,95.6V70.3h-3v-3.5h3v-9.5h4.1v9.5h5.2v3.5h-5.2v24.3c0,2.6,1.2,3.3,3.2,3.3c0.6,0,1.4-0.1,2-0.3v3.5
					c-0.8,0.3-2,0.6-2.9,0.6C309.3,101.7,306.6,100.2,306.6,95.6"/>
				<path d="M320.9,55.1h4.3v5.4h-4.3V55.1 M320.9,66.8h4.1v34.6h-4.1V66.8z"/>
				<path d="M330.5,84.6v-1c0-10.9,4.6-17.4,10.1-17.4c5.5,0,10.1,6.4,10.1,17.4v1c0,10.9-4.6,17.4-10.1,17.4
					C335,102,330.5,95.6,330.5,84.6 M346.4,84.6v-1.1c0-8.4-2.6-13.6-6-13.6c-3.3,0-5.9,5.1-5.9,13.6v1.1c0,8.4,2.6,13.6,5.9,13.6
					C343.8,98.3,346.4,93.1,346.4,84.6z"/>
				<path d="M355.6,66.8h4.1v4.8c1.3-2.9,3.3-5.4,6.9-5.4c4.6,0,7.5,3.9,7.5,10.4v24.8H370v-24c0-4.9-1.8-7.5-4.9-7.5
					c-3.1,0-5.5,3.1-5.5,7.9v23.7h-4.1V66.8"/>
				<path d="M378.6,91.4v-0.7c0-6.8,3.3-11.1,8.7-11.1c2.1,0,3.9,0.6,5.5,1.3v-3.7c0-4.5-2.1-7-6.2-7c-2.3,0-4.2,0.5-6.2,1.6v-3.9
					c2-1,4.1-1.5,6.8-1.5c6,0,9.7,3.7,9.7,10.5v24.5h-4.1v-4.6c-1.4,3.3-3.5,5.2-6.6,5.2C381.7,102,378.6,97.6,378.6,91.4
					 M392.8,91.1v-6.6c-1.5-0.7-3.2-1.2-4.8-1.2c-3.5,0-5.4,2.9-5.4,7.3v0.7c0,4.3,1.7,7.3,4.7,7.3C390.6,98.5,392.8,95,392.8,91.1z
					"/>
				<rect x="403.1" y="55.1" width="4.1" height="46.3"/>
				<polyline points="423.6,55.5 431.6,55.5 431.6,74.5 438.6,74.5 438.6,55.5 446.6,55.5 446.6,101.4 438.6,101.4 438.6,82.1 
					431.6,82.1 431.6,101.4 423.6,101.4 423.6,55.5 				"/>
				<path d="M450.3,84.8v-1.7c0-11.3,4.9-17.3,10.7-17.3c6.1,0,10,6.1,10,17.6v4.1H458c0.5,5.5,2.8,7.4,5.3,7.4c2.4,0,3.9-1,6.2-2.6
					l0.6,7.1c-2.7,1.8-4.8,2.7-7.7,2.7C455.8,102.1,450.3,96.1,450.3,84.8 M463.6,81.4c0-5.9-0.9-8.7-2.7-8.7c-1.8,0-2.9,2.5-3,8.7
					H463.6z"/>
				<path d="M473.8,91.6v-1.1c0-7.9,3.1-11.1,7.8-11.1c1.6,0,3.1,0.5,4.6,1.3v-2.1c0-3.6-1.8-5.5-4.9-5.5c-2,0-3.9,0.8-5.8,1.6v-7.3
					c2.4-1.1,4.3-1.5,7.3-1.5c7.1,0,11.1,4.2,11.1,12.2v23.3h-7.7v-3.7c-1.4,2.9-3.2,4.3-5.7,4.3C476.6,102,473.8,98.1,473.8,91.6
					 M486.3,92.2v-6c-0.6-0.3-1.8-0.7-2.4-0.7c-1.6,0-2.6,1.3-2.6,4.7V91c0,3.5,1,4.5,2.4,4.5C484.9,95.5,486.3,94.4,486.3,92.2z"/>
				<path d="M498,66.3h7.8v4.4c1-3,2.7-5,5.6-4.8v9.3h-0.1c-3.7,0-5.5,2.5-5.5,7.5v18.7H498L498,66.3"/>
				<path d="M516.6,95.4V72.6h-2.1v-6.3h2.1v-9h7.8v9h4.1v6.3h-4.1v20.2c0,1.6,0.8,2.2,2.2,2.2c0.6,0,1.2-0.1,1.9-0.4v6.2
					c-1.2,0.6-3,1.2-4.6,1.2C520.1,101.9,516.6,100.7,516.6,95.4"/>
				<polyline points="254.5,121.1 262.5,121.1 262.5,159.4 270.9,159.4 270.9,167 254.5,167 254.5,121.1 				"/>
				<path d="M273.8,158.4v-26.6h7.7v24.8c0,2.5,1,4,2.5,4c1.6,0,2.7-1.5,2.7-4v-24.8h7.8V167h-7.8v-4.2c-1.4,2.7-3.1,4.9-6.2,4.9
					C276.1,167.6,273.8,163.8,273.8,158.4"/>
				<path d="M298.8,131.8h7.7v4.2c1.4-2.7,3.2-4.8,6.2-4.8c4.5,0,6.8,3.8,6.8,9.2v26.6h-7.7v-24.8c0-2.6-1-4-2.6-4
					c-1.6,0-2.7,1.4-2.7,4v24.8h-7.7V131.8"/>
				<path d="M324.6,174.5v-7.1c2.2,0.8,5,1.4,6.6,1.4c3.5,0,5.6-1.4,5.6-5.5v-3.5c-1.1,2.2-2.8,5.1-6.2,5.1c-4.2,0-7.4-4.2-7.4-16.7
					v-0.4c0-12.5,3.2-16.6,7.4-16.6c3.4,0,5.1,2.7,6.2,4.9v-4.2h7.7v32c0,8.5-4.9,11.7-12.3,11.7C328.9,175.6,327,175.2,324.6,174.5
					 M336.8,148.1v-0.1c0-6.2-1.3-9.4-3.1-9.4s-2.9,3.2-2.9,9.4v0.1c0,6.3,1,9.4,2.9,9.4C335.6,157.4,336.8,154.4,336.8,148.1z"/>
				<path d="M358,157.2v-1.1c0-7.9,3.1-11.2,7.8-11.2c1.6,0,3.1,0.5,4.6,1.3v-2.1c0-3.6-1.8-5.5-4.9-5.5c-2,0-3.9,0.8-5.8,1.6v-7.3
					c2.4-1.1,4.3-1.5,7.3-1.5c7.2,0,11.1,4.2,11.1,12.2V167h-7.7v-3.7c-1.4,2.9-3.2,4.3-5.7,4.3C360.8,167.5,358,163.6,358,157.2
					 M370.4,157.7v-6c-0.6-0.3-1.8-0.7-2.4-0.7c-1.6,0-2.6,1.3-2.6,4.6v0.9c0,3.5,1.1,4.5,2.4,4.5
					C369.1,161.1,370.4,159.9,370.4,157.7z"/>
				<path d="M382.2,131.8h7.7v4.2c1.4-2.7,3.1-4.8,6.2-4.8c4.5,0,6.8,3.8,6.8,9.2v26.6h-7.7v-24.8c0-2.6-1-4-2.6-4
					c-1.6,0-2.7,1.4-2.7,4v24.8h-7.7L382.2,131.8"/>
				<path d="M406.5,151v-3.2c0-12.5,3.3-16.6,7.5-16.6c3.4,0,5,2.8,6.2,4.9v-15.3h7.7v46.2h-7.7v-4.4c-1.1,2.1-2.8,5.1-6.2,5.1
					C409.8,167.6,406.5,163.6,406.5,151 M420.2,150.6v-2.4c0-6.2-1.1-9.6-3.1-9.6c-2,0-2.9,3.4-2.9,9.6v2.4c0,6.3,0.9,9.6,2.9,9.6
					C419.1,160.2,420.2,156.9,420.2,150.6z"/>
				<path d="M442.8,121.1h6.9c7.8,0,14.9,3.2,14.9,11.7v0.3c0,5.9-3.3,8.8-6.6,10.4c3.9,1.7,7.2,4.4,7.2,10.2v0.6
					c0,8.1-6.3,12.7-15.2,12.7h-7.3L442.8,121.1 M450.9,140.3c3.5,0,5.9-2,5.9-6v-0.1c0-4-2.4-5.7-5.9-5.7h-0.1v11.9L450.9,140.3
					L450.9,140.3z M451,159.6c3.7,0,6.3-2.2,6.3-6v-0.4c0-3.8-2.6-6-6.3-6h-0.2v12.3L451,159.6L451,159.6z"/>
				<rect x="468.5" y="120.8" width="7.8" height="46.2"/>
				<path d="M480,150.5v-2.1c0-11.3,4.6-17.1,10.9-17.1c6.3,0,10.9,5.8,10.9,17.1v2.1c0,11.3-4.6,17.1-10.9,17.1
					C484.5,167.6,480,161.8,480,150.5 M494,150.6v-2.3c0-7-1.2-10.1-3.2-10.1c-2,0-3.1,3.2-3.1,10.1v2.3c0,6.8,1.2,10.1,3.1,10.1
					C492.8,160.7,494,157.5,494,150.6z"/>
				<path d="M504.7,150.5v-2.1c0-11.3,4.6-17.1,10.9-17.1c6.3,0,10.9,5.8,10.9,17.1v2.1c0,11.3-4.6,17.1-10.9,17.1
					C509.3,167.6,504.7,161.8,504.7,150.5 M518.8,150.6v-2.3c0-7-1.2-10.1-3.1-10.1c-2,0-3.2,3.2-3.2,10.1v2.3
					c0,6.8,1.2,10.1,3.2,10.1C517.6,160.7,518.8,157.5,518.8,150.6z"/>
				<path d="M529.6,151v-3.2c0-12.5,3.3-16.6,7.5-16.6c3.4,0,5,2.8,6.1,4.9v-15.3h7.7v46.2h-7.7v-4.4c-1.1,2.1-2.8,5.1-6.1,5.1
					C532.9,167.6,529.6,163.6,529.6,151 M543.4,150.6v-2.4c0-6.2-1.1-9.6-3.1-9.6c-2,0-2.9,3.4-2.9,9.6v2.4c0,6.3,0.9,9.6,2.9,9.6
					C542.2,160.2,543.4,156.9,543.4,150.6z"/>
				<rect x="567.5" y="121.1" width="4.3" height="45.9"/>
				<path d="M578.7,132.3h4.1v4.9c1.2-2.9,3.3-5.4,6.9-5.4c4.6,0,7.5,3.9,7.5,10.4V167h-4.1v-24.1c0-4.9-1.8-7.5-4.8-7.5
					c-3.1,0-5.5,3.1-5.5,7.9V167h-4.1L578.7,132.3"/>
				<path d="M601.5,165.8v-4.1c2.4,1.3,4.8,2,6.9,2c2.6,0,4.6-1.7,4.6-4.5v-0.1c0-2.2-1.2-4.3-5-7.9c-4.7-4.5-6.5-7.3-6.5-11V140
					c0-5.1,3.8-8.1,8.4-8.1c2.2,0,3.9,0.3,5.7,1.1v4.1c-1.9-1-3.7-1.4-5.7-1.4c-2.5,0-4.3,1.6-4.3,4.1v0.1c0,2.2,1.1,3.8,5.1,7.7
					c4.7,4.6,6.4,7.5,6.4,11.2v0.1c0,5.2-4,8.4-8.6,8.4C605.9,167.4,603.8,166.8,601.5,165.8"/>
				<path d="M622.5,161.1v-25.2h-3v-3.5h3v-9.5h4.1v9.5h5.2v3.5h-5.2v24.2c0,2.6,1.2,3.3,3.2,3.3c0.6,0,1.4-0.1,2-0.3v3.5
					c-0.8,0.3-2,0.6-2.9,0.6C625.2,167.3,622.5,165.8,622.5,161.1"/>
				<path d="M636.8,120.7h4.3v5.4h-4.3V120.7 M636.9,132.3h4.1V167h-4.1V132.3z"/>
				<path d="M648.5,161.1v-25.2h-2.9v-3.5h2.9v-9.5h4.1v9.5h5.2v3.5h-5.2v24.2c0,2.6,1.2,3.3,3.2,3.3c0.6,0,1.4-0.1,2-0.3v3.5
					c-0.8,0.3-2,0.6-2.9,0.6C651.2,167.3,648.5,165.8,648.5,161.1"/>
				<path d="M662.4,157.1v-24.8h4.1v24.1c0,4.9,1.8,7.5,4.9,7.5s5.5-3.1,5.5-7.9v-23.7h4.1V167h-4.1v-4.8c-1.2,2.8-3.3,5.4-6.9,5.4
					C665.3,167.5,662.4,163.7,662.4,157.1"/>
				<path d="M688.1,161.1v-25.2h-3v-3.5h3v-9.5h4.1v9.5h5.2v3.5h-5.2v24.2c0,2.6,1.2,3.3,3.2,3.3c0.6,0,1.4-0.1,2-0.3v3.5
					c-0.8,0.3-2,0.6-3,0.6C690.8,167.3,688.1,165.8,688.1,161.1"/>
				<path d="M701,150.4v-0.9c0-11.7,4.5-17.6,9.8-17.6c5.4,0,9.2,6.1,9.2,17v2.6h-15c0.3,8.3,3.6,12.1,7.7,12.1c2.2,0,3.7-0.7,6-2.2
					l0.4,3.9c-2.5,1.5-4.2,2.1-7,2.1C706.2,167.5,701,161.7,701,150.4 M716.1,148.1c0-7.4-2.2-12.5-5.3-12.5
					c-3.1,0-5.5,4.1-5.7,12.5H716.1z"/>
			</g>
		</g>
	</g>
</g>
</svg>
