<?xml version="1.0" encoding="utf-8"?>
<!-- Generator: Adobe Illustrator 26.0.1, SVG Export Plug-In . SVG Version: 6.00 Build 0)  -->
<svg version="1.1" id="Layer_1" xmlns="http://www.w3.org/2000/svg" xmlns:xlink="http://www.w3.org/1999/xlink" x="0px" y="0px"
	 viewBox="0 0 400 459.1" style="enable-background:new 0 0 400 459.1;" xml:space="preserve">
<style type="text/css">
	.st0{fill:#FFFFFF;}
</style>
<g>
	<g>
		<polygon class="st0" points="289.2,306.4 339.2,356.4 339.2,152.3 289.2,181.2 		"/>
		<polygon class="st0" points="110.8,306.4 60.8,356.4 60.8,152.3 110.8,181.2 		"/>
		<polygon class="st0" points="0,306.4 50,356.4 50,133.3 200,220.1 350,133.5 350,356.4 400,306.4 400,45.5 200,160.9 0,45.5 		"/>
		<polygon class="st0" points="0,32.9 200,148.4 400,32.9 354.6,0 200,89.2 45.5,0.1 		"/>
	</g>
	<g>
		<path class="st0" d="M0.2,459.1v-46.3h7.5l15.5,32.9l15.5-32.9H46v46.3h-5.6v-37.9l-14.6,31.2h-5.3L5.8,421.2v37.9H0.2z"/>
		<path class="st0" d="M55.6,449v-14.8c0-6.7,3.4-10.1,10.1-10.1h8.7c6.7,0,10.1,3.4,10.1,10.1v9.5H61v6c0,3.1,1.6,4.7,4.7,4.7h17.5
			v2.7l-2.7,2H65.7C58.9,459.1,55.6,455.8,55.6,449z M61,439.4h18.1v-5.8c0-3.1-1.6-4.7-4.7-4.7h-8.7c-3.1,0-4.7,1.6-4.7,4.7
			C61,433.6,61,439.4,61,439.4z"/>
		<path class="st0" d="M104.1,425.1l0.6-0.9h4.6l10.2,30.2h1.3l10.2-30.2h4.6l0.6,0.9l-11.8,34h-8.7L104.1,425.1z"/>
		<path class="st0" d="M157.1,459.1v-46.3h7.5l15.5,32.9l15.5-32.9h7.5v46.3h-5.6v-37.9l-14.6,31.2h-5.3L163,421.2v37.9H157.1z"/>
		<path class="st0" d="M221.4,459.1c-6.8,0-10.1-3.4-10.1-10.1c0-6.8,3.4-10.1,10.1-10.1h12.3v-5.2c0-3.1-1.6-4.7-4.7-4.7h-14.4
			v-2.7l2.7-2H229c6.7,0,10.1,3.4,10.1,10.1v24.9h-17.7V459.1z M216.6,449.7c0,3.1,1.6,4.7,4.7,4.7h12.4v-11.2h-12.4
			c-3.1,0-4.7,1.6-4.7,4.7V449.7z"/>
		<path class="st0" d="M247.6,449v-14.8c0-6.7,3.4-10.1,10.1-10.1h13.2l2.7,2v2.7h-15.9c-3.1,0-4.7,1.6-4.7,4.7v16.1
			c0,3.1,1.6,4.7,4.7,4.7h15.9v2.7l-2.7,2h-13.2C251,459.1,247.6,455.8,247.6,449z"/>
		<path class="st0" d="M280.7,459.1v-49.7h5.4v14.8h13.4c6.7,0,10.1,3.4,10.1,10.1v24.9h-5.4v-25.5c0-3.1-1.6-4.7-4.7-4.7H286v30.2
			L280.7,459.1L280.7,459.1z"/>
		<path class="st0" d="M318.4,417.7v-6.3h5.9v6.3H318.4z M318.7,459.1v-34.9h5.4v34.9H318.7z"/>
		<path class="st0" d="M333.5,459.1v-34.9h18.8c6.7,0,10.1,3.4,10.1,10.1v24.9H357v-25.5c0-3.1-1.6-4.7-4.7-4.7h-13.4v30.2h-5.4
			V459.1z"/>
		<path class="st0" d="M370.9,449v-14.8c0-6.7,3.4-10.1,10.1-10.1h8.7c6.7,0,10.1,3.4,10.1,10.1v9.5h-23.5v6c0,3.1,1.6,4.7,4.7,4.7
			h17.5v2.7l-2.7,2H381C374.3,459.1,370.9,455.8,370.9,449z M376.3,439.4h18.1v-5.8c0-3.1-1.6-4.7-4.7-4.7H381
			c-3.1,0-4.7,1.6-4.7,4.7V439.4z"/>
	</g>
</g>
</svg>
