<?xml version="1.0" encoding="utf-8"?>
<!-- Generator: Adobe Illustrator 26.0.1, SVG Export Plug-In . SVG Version: 6.00 Build 0)  -->
<svg version="1.1" id="Layer_1" xmlns="http://www.w3.org/2000/svg" xmlns:xlink="http://www.w3.org/1999/xlink" x="0px" y="0px"
	 viewBox="0 0 587.4 112.8" style="enable-background:new 0 0 587.4 112.8;" xml:space="preserve">
<style type="text/css">
	.st0{fill:#201E2A;}
</style>
<g>
	<polygon class="st0" points="91.5,97 107.4,112.8 107.4,48.2 91.5,57.4 	"/>
	<polygon class="st0" points="35.1,97 19.2,112.8 19.2,48.2 35.1,57.4 	"/>
	<polygon class="st0" points="0,97 15.8,112.8 15.8,42.2 63.3,69.7 110.8,42.3 110.8,112.8 126.6,97 126.6,14.4 63.3,50.9 0,14.4 	
		"/>
	<polygon class="st0" points="0,10.4 63.3,47 126.6,10.4 112.2,0 63.3,28.2 14.4,0 	"/>
</g>
<path class="st0" d="M174,80.4V32.5h7.8l16,34l16-34h7.6v47.9h-5.8V41.2l-15.1,32.3H195l-15.2-32.3v39.2H174z"/>
<path class="st0" d="M231.3,70V54.7c0-6.9,3.5-10.4,10.4-10.4h9c6.9,0,10.4,3.5,10.4,10.4v9.8h-24.3v6.2c0,3.2,1.7,4.9,4.9,4.9h18.1
	v2.8l-2.8,2.1h-15.3C234.7,80.4,231.3,77,231.3,70z M236.9,60h18.7v-6c0-3.2-1.7-4.9-4.9-4.9h-9c-3.2,0-4.9,1.7-4.9,4.9
	C236.9,54,236.9,60,236.9,60z"/>
<path class="st0" d="M281.5,45.2l0.6-0.9h4.8l10.6,31.2h1.3l10.6-31.2h4.8l0.6,0.9l-12.2,35.2h-9L281.5,45.2z"/>
<path class="st0" d="M336.3,80.4V32.5h7.8l16,34l16-34h7.8v47.9h-5.8V41.2L363,73.5h-5.5l-15.1-32.3v39.2H336.3z"/>
<path class="st0" d="M402.9,80.4c-7,0-10.4-3.5-10.4-10.4c0-7,3.5-10.4,10.4-10.4h12.7v-5.4c0-3.2-1.7-4.9-4.9-4.9h-14.9v-2.8
	l2.8-2.1h12.1c6.9,0,10.4,3.5,10.4,10.4v25.8h-18.3V80.4z M397.9,70.7c0,3.2,1.7,4.9,4.9,4.9h12.8V64h-12.8c-3.2,0-4.9,1.7-4.9,4.9
	V70.7z"/>
<path class="st0" d="M430,70V54.7c0-6.9,3.5-10.4,10.4-10.4h13.7l2.8,2.1v2.8h-16.5c-3.2,0-4.9,1.7-4.9,4.9v16.7
	c0,3.2,1.7,4.9,4.9,4.9h16.5v2.8l-2.8,2.1h-13.7C433.5,80.4,430,77,430,70z"/>
<path class="st0" d="M464.2,80.4V29h5.6v15.3h13.9c6.9,0,10.4,3.5,10.4,10.4v25.8h-5.6V54.1c0-3.2-1.7-4.9-4.9-4.9h-14v31.2h-5.5
	V80.4z"/>
<path class="st0" d="M503.2,37.6v-6.5h6.1v6.5H503.2z M503.5,80.4V44.3h5.6v36.1H503.5z"/>
<path class="st0" d="M518.8,80.4V44.3h19.5c6.9,0,10.4,3.5,10.4,10.4v25.8h-5.6V54.1c0-3.2-1.7-4.9-4.9-4.9h-13.9v31.2h-5.6V80.4z"
	/>
<path class="st0" d="M557.5,70V54.7c0-6.9,3.5-10.4,10.4-10.4h9c6.9,0,10.4,3.5,10.4,10.4v9.8h-24.3v6.2c0,3.2,1.7,4.9,4.9,4.9h18.1
	v2.8l-2.8,2.1H568C561,80.4,557.5,77,557.5,70z M563.1,60h18.7v-6c0-3.2-1.7-4.9-4.9-4.9h-9c-3.2,0-4.9,1.7-4.9,4.9V60z"/>
</svg>
