<?xml version="1.0" encoding="utf-8"?>
<!-- Generator: Adobe Illustrator 26.0.2, SVG Export Plug-In . SVG Version: 6.00 Build 0)  -->
<svg version="1.1" id="Layer_1" xmlns="http://www.w3.org/2000/svg" xmlns:xlink="http://www.w3.org/1999/xlink" x="0px" y="0px"
	 viewBox="0 0 210 70" style="enable-background:new 0 0 210 70;" xml:space="preserve">
<style type="text/css">
	.st0{fill:#1A1A1A;}
	.st1{clip-path:url(#SVGID_00000043454232637363037530000004264620929916595639_);}
	.st2{fill-rule:evenodd;clip-rule:evenodd;fill:#1A1A1A;}
</style>
<g id="Group_167" transform="translate(-1053.896 -3540.287)">
	<path id="Path_78" class="st0" d="M1128.1,3546.7l-8,39.7h-0.2l-11.7-39.7H1089l-12.2,57.3h14.4l8-39.6h0.2l12,39.6h19l12.1-57.3
		H1128.1z"/>
	<path id="Path_79" class="st0" d="M1181.6,3546.7l-4.5,21.9H1159l4.5-21.9h-15.3l-11.9,57.3h15.3l5.1-24.5h18.1l-5.1,24.5h15.3
		l11.9-57.3H1181.6z"/>
	<g id="Group_88" transform="translate(1053.896 3540.287)">
		<g>
			<defs>
				<rect id="SVGID_1_" x="22.9" y="5.4" width="164.2" height="59.2"/>
			</defs>
			<clipPath id="SVGID_00000145057732232711388690000017044580605890804920_">
				<use xlink:href="#SVGID_1_"  style="overflow:visible;"/>
			</clipPath>
			<g id="Group_87" style="clip-path:url(#SVGID_00000145057732232711388690000017044580605890804920_);">
				<path id="Path_80" class="st2" d="M183.4,19.3c-4-1.8-8.3-2.7-12.6-2.6c-6.1,0-11,0.9-11,5.5c0,8.1,22.2,5.1,22.2,22.5
					c0,15.8-14.7,19.9-28,19.9c-6-0.1-12-1.1-17.7-3l3.6-11.6c3,2,9.1,3.3,14.1,3.3c4.8,0,12.2-0.9,12.2-6.8
					c0-9.2-22.2-5.7-22.2-21.9c0-14.8,13-19.2,25.5-19.2c7.1,0,13.7,0.7,17.6,2.5L183.4,19.3z"/>
			</g>
		</g>
	</g>
</g>
</svg>
