<?xml version="1.0" encoding="utf-8"?>
<!-- Generator: Adobe Illustrator 26.0.3, SVG Export Plug-In . SVG Version: 6.00 Build 0)  -->
<svg version="1.1" id="Layer_1" xmlns="http://www.w3.org/2000/svg" xmlns:xlink="http://www.w3.org/1999/xlink" x="0px" y="0px"
	 viewBox="0 0 278 133" style="enable-background:new 0 0 278 133;" xml:space="preserve">
<style type="text/css">
	.st0{fill:#08090A;}
	.st1{fill:#FFFFFF;}
</style>
<g id="Layer_1_1_">
	<path class="st0" d="M0,0v133h67.3c-0.9-0.6-1.6-1.2-2.4-1.9c-6.3-6.1-6.4-13.2-6.6-19.8V73.6h20.2v39.5c0,2.7,0.1,5.5,2.3,7.6
		c1.6,1.7,4.1,2.3,6.4,2.3c3.2,0,5.2-1.2,6.4-2.2c2.3-2.2,2.4-5,2.4-7.7V73.6h20.3v33.7c0,7.3,0,16.7-7.5,23.8
		c-0.7,0.7-1.5,1.3-2.4,1.9h30.2c-8.9-6.4-13.1-17-13.1-27.4c0-17,11.4-34.3,33-34.3c9.6,0,18.8,3.4,25.5,10.2
		c2.7,2.8,4,4.9,5.3,7.4l-16.8,8.3c-1.6-3.8-4.7-10.5-13.1-10.5c-4.4,0-7.2,2.1-8.6,3.4c-4.8,4.6-4.8,11.7-4.8,14.3
		c0,9.4,3.5,18.3,13.4,18.3c9.4,0,12.2-8.2,12.9-10.4l17.1,8.2c-1.6,3-3.2,5.9-6.2,9c-1.3,1.3-2.7,2.4-4.2,3.4h18.5V73.5h20.1v46.7
		h26.1V133H278V0C278,0,0,0,0,0z"/>
</g>
<g id="Layer_4">
	<g>
		<path class="st1" d="M50,87.8c0,0-10.9-2.3-10.9-2.3s-10.8,2.3-10.9,2.3c-0.1,0,0,0.1,0,0.1l0.2,0.6l0,0l0,0c0,0,0.2,0,0.3,0.1
			l0.2,0.9c0,0,0,0.1,0.1,0.1c0.1,0,0.4,0,0.4,0H49c0,0,0.3,0,0.4,0s0.1,0,0.1,0l0.2-0.9c0.1-0.2,0.3-0.2,0.3-0.2l0,0l0,0L50,87.8
			C50.1,87.9,50.1,87.8,50,87.8z"/>
		<path class="st1" d="M48.9,89.8C48.9,89.8,48.9,89.8,48.9,89.8l0-0.3c0,0,0,0,0,0h-1.7c0,0,0,0,0,0v0.3c0,0,0,0,0,0l0.1,0
			c0,0,0,0,0,0.1c0,0,0,0.3,0.2,0.4c0,0,0,0.1,0,0.1c0,0,0,0-0.1,0c0,0,0,0,0,0c0,0,0,0.1,0,0.1c0,0,0,0.1,0,0.1c0,0,0,0,0,0
			c0,0,0,0,0,0c0,0,0,0,0,0c0,0,0,0,0,0v6.1c0,0-0.1,0.1-0.1,0.1c0,0,0,0,0,0V97c0,0,0,0,0,0c0,0,0,0,0,0h-0.1c0,0,0,0,0,0
			c0,0,0,0.2,0,0.2h1.6c0,0,0-0.2,0-0.2c0,0,0,0,0,0h-0.1c0,0,0,0,0,0c0,0,0,0,0,0v-0.1c0,0,0,0,0,0c0,0-0.1-0.1-0.1-0.1v-6.1
			c0,0,0,0,0,0c0,0,0,0,0,0c0,0,0,0,0,0c0,0,0,0,0,0c0,0,0-0.1,0-0.1c0,0,0-0.1,0-0.1c0,0,0,0,0,0c0,0,0,0,0,0c0,0-0.1-0.1,0-0.1
			c0.2-0.1,0.2-0.3,0.2-0.4C48.8,89.9,48.8,89.8,48.9,89.8L48.9,89.8z"/>
		<path class="st1" d="M45.3,89.8C45.4,89.8,45.4,89.8,45.3,89.8l0-0.3c0,0,0,0,0,0h-1.7c0,0,0,0,0,0v0.3c0,0,0,0,0,0l0.1,0
			c0,0,0,0,0,0.1c0,0,0,0.3,0.2,0.4c0,0,0,0.1,0,0.1c0,0,0,0-0.1,0c0,0,0,0,0,0c0,0,0,0.1,0,0.1c0,0,0,0.1,0,0.1c0,0,0,0,0,0h0
			c0,0,0,0,0,0c0,0,0,0,0,0v6.1c0,0-0.1,0.1-0.1,0.1c0,0,0,0,0,0V97c0,0,0,0,0,0c0,0,0,0,0,0h-0.1c0,0,0,0,0,0c0,0,0,0.2,0,0.2h1.6
			c0,0,0-0.2,0-0.2c0,0,0,0,0,0h-0.1c0,0,0,0,0,0c0,0,0,0,0,0v-0.1c0,0,0,0,0,0c0,0-0.1-0.1-0.1-0.1v-6.1c0,0,0,0,0,0c0,0,0,0,0,0
			c0,0,0,0,0,0c0,0,0,0,0,0c0,0,0-0.1,0-0.1c0,0,0-0.1,0-0.1c0,0,0,0,0,0c0,0,0,0,0,0c0,0-0.1-0.1,0-0.1c0.2-0.1,0.2-0.3,0.2-0.4
			C45.2,89.9,45.2,89.8,45.3,89.8L45.3,89.8z"/>
		<path class="st1" d="M41.8,89.8C41.8,89.8,41.8,89.8,41.8,89.8l0-0.3c0,0,0,0,0,0h-1.7c0,0,0,0,0,0v0.3c0,0,0,0,0,0l0.1,0
			c0,0,0,0,0,0.1c0,0,0,0.3,0.2,0.4c0,0,0,0.1,0,0.1c0,0,0,0-0.1,0c0,0,0,0,0,0c0,0,0,0.1,0,0.1c0,0,0,0.1,0,0.1c0,0,0,0,0,0
			c0,0,0,0,0,0s0,0,0,0c0,0,0,0,0,0v6.1c0,0-0.1,0.1-0.1,0.1c0,0,0,0,0,0V97c0,0,0,0,0,0c0,0,0,0,0,0h-0.1c0,0,0,0,0,0
			c0,0,0,0.2,0,0.2h1.6c0,0,0-0.2,0-0.2c0,0,0,0,0,0h-0.1c0,0,0,0,0,0c0,0,0,0,0,0v-0.1c0,0,0,0,0,0c0,0-0.1-0.1-0.1-0.1v-6.1
			c0,0,0,0,0,0c0,0,0,0,0,0c0,0,0,0,0,0c0,0,0,0,0,0c0,0,0-0.1,0-0.1c0,0,0-0.1,0-0.1c0,0,0,0,0,0c0,0,0,0-0.1,0c0,0-0.1-0.1,0-0.1
			c0.2-0.1,0.2-0.3,0.2-0.4C41.7,89.9,41.7,89.8,41.8,89.8L41.8,89.8z"/>
		<path class="st1" d="M38.2,89.8C38.2,89.8,38.2,89.8,38.2,89.8l0-0.3c0,0,0,0,0,0h-1.7c0,0,0,0,0,0v0.3c0,0,0,0,0,0l0.1,0
			c0,0,0,0,0,0.1c0,0,0,0.3,0.2,0.4c0,0,0,0.1,0,0.1c0,0,0,0-0.1,0c0,0,0,0,0,0c0,0,0,0.1,0,0.1c0,0,0,0.1,0,0.1c0,0,0,0,0,0
			c0,0,0,0,0,0c0,0,0,0,0,0c0,0,0,0,0,0v6.1c0,0-0.1,0.1-0.1,0.1c0,0,0,0,0,0V97c0,0,0,0,0,0c0,0,0,0,0,0h-0.1c0,0,0,0,0,0
			c0,0,0,0.2,0,0.2h1.6c0,0,0-0.2,0-0.2c0,0,0,0,0,0h-0.1c0,0,0,0,0,0c0,0,0,0,0,0v-0.1c0,0,0,0,0,0c0,0-0.1-0.1-0.1-0.1v-6.1
			c0,0,0,0,0,0c0,0,0,0,0,0c0,0,0,0,0,0c0,0,0,0,0,0c0,0,0-0.1,0-0.1c0,0,0-0.1,0-0.1c0,0,0,0,0,0c0,0,0,0,0,0c0,0-0.1-0.1,0-0.1
			c0.2-0.1,0.2-0.3,0.2-0.4C38.1,89.9,38.1,89.8,38.2,89.8L38.2,89.8z"/>
		<path class="st1" d="M34.7,89.8C34.7,89.8,34.7,89.8,34.7,89.8l0-0.3c0,0,0,0,0,0H33c0,0,0,0,0,0v0.3c0,0,0,0,0,0l0.1,0
			c0,0,0,0,0,0.1c0,0,0,0.3,0.2,0.4c0,0,0,0.1,0,0.1c0,0,0,0-0.1,0c0,0,0,0,0,0c0,0,0,0.1,0,0.1c0,0,0,0.1,0,0.1c0,0,0,0,0,0
			c0,0,0,0,0,0c0,0,0,0,0,0c0,0,0,0,0,0v6.1c0,0-0.1,0.1-0.1,0.1c0,0,0,0,0,0V97c0,0,0,0,0,0c0,0,0,0,0,0H33c0,0,0,0,0,0
			c0,0,0,0.2,0,0.2h1.6c0,0,0-0.2,0-0.2c0,0,0,0,0,0h-0.1c0,0,0,0,0,0c0,0,0,0,0,0v-0.1c0,0,0,0,0,0c0,0-0.1-0.1-0.1-0.1v-6.1
			c0,0,0,0,0,0c0,0,0,0,0,0c0,0,0,0,0,0c0,0,0,0,0,0c0,0,0-0.1,0-0.1c0,0,0-0.1,0-0.1c0,0,0,0,0,0c0,0,0,0-0.1,0c0,0-0.1-0.1,0-0.1
			c0.2-0.1,0.2-0.3,0.2-0.4C34.5,89.9,34.5,89.8,34.7,89.8L34.7,89.8z"/>
		<path class="st1" d="M31.1,89.8C31.1,89.8,31.1,89.8,31.1,89.8l0-0.3c0,0,0,0,0,0h-1.7c0,0,0,0,0,0v0.3c0,0,0,0,0,0l0.1,0
			c0,0,0,0,0,0.1c0,0,0,0.3,0.2,0.4c0,0,0,0.1,0,0.1c0,0,0,0-0.1,0c0,0,0,0,0,0c0,0,0,0.1,0,0.1c0,0,0,0.1,0,0.1c0,0,0,0,0,0h0
			c0,0,0,0,0,0c0,0,0,0,0,0v6.1c0,0-0.1,0.1-0.1,0.1c0,0,0,0,0,0V97c0,0,0,0,0,0c0,0,0,0,0,0h-0.1c0,0,0,0,0,0c0,0,0,0.2,0,0.2h1.6
			c0,0,0-0.2,0-0.2c0,0,0,0,0,0H31c0,0,0,0,0,0c0,0,0,0,0,0v-0.1c0,0,0,0,0,0c0,0-0.1-0.1-0.1-0.1v-6.1c0,0,0,0,0,0c0,0,0,0,0,0
			c0,0,0,0,0,0c0,0,0,0,0,0c0,0,0-0.1,0-0.1c0,0,0-0.1,0-0.1c0,0,0,0,0,0c0,0,0,0-0.1,0c0,0-0.1-0.1,0-0.1c0.2-0.1,0.2-0.3,0.2-0.4
			C31,89.9,31,89.8,31.1,89.8L31.1,89.8z"/>
		<g>
			<path class="st1" d="M44.2,83.4c0,0-0.1,0-0.2,0c0,0,0,0,0,0s0-0.1,0-0.2c0,0,0,0,0,0s-0.1,0-0.2,0c0,0,0,0,0,0v-0.2c0,0,0,0,0,0
				c0,0-0.1,0-0.1,0c0,0-0.1,0-0.1-0.1c0-0.2,0.1-1.9-0.8-3c-0.7-1-1.6-1.5-2.1-1.8c0-0.2-0.3-0.3-0.5-0.4c-0.1,0-0.1-0.1-0.1-0.1
				c0,0,0-0.1,0-0.1c0-0.1,0.1-0.1,0.2-0.1c0,0,0.1,0,0.1,0v-0.2c0,0,0-0.1-0.1-0.1c-0.1,0-0.1,0-0.2,0c0,0-0.1,0-0.1-0.1
				c0,0,0,0,0-0.1c0-0.1,0-0.1-0.1-0.1v-1.2c0,0,0,0,0.1,0c0,0,0,0,0,0h0c0,0,0,0,0,0v-0.1c0,0,0,0,0,0h-0.1c0,0,0,0,0-0.1
				s0-0.1,0-0.1h0c0,0,0,0,0,0V75c0,0,0,0,0,0h-0.1c0,0,0,0-0.1,0c-0.2-0.2-0.4-0.4-0.4-0.4c0,0,0,0,0,0c0,0,0-0.1-0.1-0.1
				s0-0.1,0-0.1c0,0,0,0,0,0c0,0,0,0,0-0.1c0,0-0.1-0.2-0.1-0.2h0c0,0-0.1,0.1-0.1,0.2c0,0,0,0.1,0,0.1c0,0,0,0,0,0c0,0,0,0.1,0,0.1
				c-0.1,0-0.1,0-0.1,0.1c0,0,0,0,0,0c0,0-0.2,0.3-0.4,0.4c0,0,0,0-0.1,0h-0.1c0,0,0,0,0,0v0.1c0,0,0,0,0,0h0c0,0,0,0,0,0.1
				s0,0.1,0,0.1h-0.1c0,0,0,0,0,0v0.1c0,0,0,0,0,0h0c0,0,0,0,0,0c0,0,0.1,0,0.1,0v1.2c0,0-0.1,0.1-0.1,0.1c0,0.1,0,0.1,0,0.1
				c0,0,0,0.1-0.1,0.1c0,0-0.1,0-0.2,0c0,0-0.1,0-0.1,0.1v0.2c0,0,0,0,0.1,0c0.1,0,0.2,0,0.2,0.1c0,0,0,0.1,0,0.1
				c0,0.1-0.1,0.1-0.1,0.1c-0.1,0-0.4,0.1-0.5,0.4c-0.5,0.2-1.5,0.8-2.1,1.8c-0.9,1.2-0.8,2.8-0.8,3c0,0,0,0.1-0.1,0.1
				c0,0-0.1,0-0.1,0c0,0,0,0,0,0v0.2c0,0,0,0,0,0c0,0-0.2,0-0.2,0s0,0,0,0c0,0,0,0.2,0,0.2s0,0,0,0c0,0-0.2,0-0.2,0s0,0,0,0
				c0,0,0,0.1,0,0.2c0,0,0,0,0,0c0.1,0,0.2,0.1,0.2,0.2c0,0.2,0.1,0.2,0.2,0.2v0.7c0,0.2-0.1,0.2-0.2,0.2c0,0,0,0,0,0
				c0,0,0,0.7,0,0.7l5-1.1h0l5,1.1c0,0,0-0.7,0-0.7c0,0,0,0,0,0c-0.1,0-0.2-0.1-0.2-0.2V84c0,0,0.2,0,0.2-0.2c0-0.1,0.1-0.2,0.2-0.2
				c0,0,0,0,0,0C44.3,83.6,44.3,83.5,44.2,83.4C44.3,83.4,44.2,83.4,44.2,83.4z"/>
		</g>
		<polygon class="st1" points="49.7,99.3 49.7,97.9 48.9,97.9 48.9,97.2 29.5,97.2 29.5,97.9 28.6,97.9 28.6,99.3 27.7,99.3 
			27.7,100.8 50.6,100.8 50.6,99.3 		"/>
	</g>
</g>
</svg>
