<?xml version="1.0" encoding="utf-8"?>
<!-- Generator: Adobe Illustrator 26.0.3, SVG Export Plug-In . SVG Version: 6.00 Build 0)  -->
<svg version="1.1" id="Layer_1" xmlns="http://www.w3.org/2000/svg" xmlns:xlink="http://www.w3.org/1999/xlink" x="0px" y="0px"
	 viewBox="0 0 493.2 267.7" style="enable-background:new 0 0 493.2 267.7;" xml:space="preserve">
<path d="M463.4,99.3c3.9,9.4,6.1,19.7,6.1,30.5v0.4c0.3,0.7,0.4,1.6,0.4,2.4V182c0,10.4-1.8,20.4-5,29.8l16.5-7.2
	c5.9-2.6,11.7-5.2,11.7-11.7l0-74c0-6.5-5.8-9.1-11.7-11.7L463.4,99.3z"/>
<path d="M128.7,0C88,0,54.2,30.1,47.1,70C62.2,54,83.2,44,106.6,44h279.3c23.4,0,44.5,9.9,59.6,25.9c-7.2-39.9-41-70-81.7-70H128.7z
	"/>
<path d="M267.4,73.3c3.7,0,6.6,3.1,6.5,6.7c-0.1,3.7-3.3,6.5-6.9,6.2h-41.4c-8.2,0-8.8-12.1-0.6-12.9c0.2,0,0.4,0,0.6,0H267
	C267.1,73.3,267.3,73.3,267.4,73.3L267.4,73.3z M106.6,57C67.4,57,36,89.3,36,129.8c0,0.8-0.2,1.7-0.5,2.5V182
	c0,47.4,37.2,85.7,83.1,85.7h70.4c9.6,0,17.4-3.8,23.1-9c5.7-5.2,9.5-11.7,13-17.6c3.5-6,6.6-11.4,9.9-15c3.3-3.6,6.2-5.3,11.1-5.3
	c4.9,0,7.8,1.8,11.1,5.3c3.3,3.6,6.4,9,9.9,15c3.5,6,7.3,12.4,13.1,17.6c5.7,5.2,13.4,9,23,9h70.5c45.9,0,83.1-38.3,83.1-85.7v-49.4
	c-0.4-0.9-0.5-1.9-0.5-2.8c0-40.4-31.4-72.8-70.6-72.8L106.6,57z"/>
<path d="M29.8,211.8c-3.9-9.4-6.1-19.7-6.1-30.5v-0.4c-0.3-0.7-0.4-1.6-0.4-2.4v-49.4c0-10.4,1.8-20.4,5-29.8l-16.5,7.2
	C5.8,109.1,0,111.8,0,118.2v74c0,6.5,5.8,9.1,11.7,11.7L29.8,211.8z"/>
</svg>
