<?xml version="1.0" encoding="utf-8"?>
<!-- Generator: Adobe Illustrator 26.0.3, SVG Export Plug-In . SVG Version: 6.00 Build 0)  -->
<svg version="1.1" id="Layer_1" xmlns="http://www.w3.org/2000/svg" xmlns:xlink="http://www.w3.org/1999/xlink" x="0px" y="0px"
	 viewBox="0 0 29.2 29.2" style="enable-background:new 0 0 29.2 29.2;" xml:space="preserve">
<g id="Icon_ionic-ios-cube" transform="translate(-3.375 -3.375)">
	<path id="Path_137" d="M31,9.1L18.4,3.5c-0.3-0.1-0.5-0.1-0.8,0L5,9.1C4.7,9.3,4.6,9.6,4.7,9.9C4.8,10,4.9,10.1,5,10.1l12.6,6.6
		c0.3,0.2,0.6,0.2,0.9,0L31,10.1c0.3-0.2,0.4-0.5,0.2-0.8C31.2,9.2,31.1,9.2,31,9.1z"/>
	<path id="Path_138" d="M19.7,32.5l12.7-6.7c0.2-0.1,0.3-0.3,0.3-0.5v-13c0-0.3-0.2-0.5-0.5-0.6c-0.1,0-0.2,0-0.3,0.1l-12.7,6.5
		c-0.2,0.1-0.3,0.3-0.3,0.5v13.2c0,0.3,0.2,0.5,0.5,0.6C19.5,32.6,19.6,32.6,19.7,32.5z"/>
	<path id="Path_139" d="M3.4,12.4v13c0,0.2,0.1,0.4,0.3,0.5l12.7,6.7c0.2,0.1,0.6,0.1,0.7-0.2c0.1-0.1,0.1-0.2,0.1-0.3V18.9
		c0-0.2-0.1-0.4-0.3-0.5L4.1,11.9c-0.3-0.1-0.6,0-0.7,0.2C3.4,12.2,3.4,12.3,3.4,12.4z"/>
</g>
</svg>
